<?xml version="1.0" standalone="no"?>
<!DOCTYPE svg PUBLIC "-//W3C//DTD SVG 20010904//EN"
 "http://www.w3.org/TR/2001/REC-SVG-20010904/DTD/svg10.dtd">
<svg version="1.0" xmlns="http://www.w3.org/2000/svg"
 width="920.000000pt" height="920.000000pt" viewBox="0 0 920.000000 920.000000"
 preserveAspectRatio="xMidYMid meet">
<metadata>
Created by potrace 1.14, written by Peter Selinger 2001-2017
</metadata>
<g transform="translate(0.000000,920.000000) scale(0.100000,-0.100000)"
fill="#000000" stroke="none">
<path d="M4129 8346 c-2 -2 -44 -7 -94 -10 -49 -3 -105 -8 -123 -11 -152 -20
-237 -34 -316 -51 -39 -9 -80 -17 -91 -20 -18 -3 -72 -16 -85 -19 -3 -1 -23
-5 -45 -10 -56 -13 -55 -12 -57 -15 -3 -1 -21 -6 -50 -13 -7 -1 -17 -5 -23 -8
-8 -5 -56 -20 -75 -23 -3 -1 -18 -6 -35 -13 -16 -6 -70 -25 -120 -43 -97 -35
-194 -75 -291 -121 -34 -16 -66 -29 -72 -29 -6 0 -12 -3 -14 -7 -1 -5 -30 -21
-63 -38 -140 -69 -417 -244 -525 -332 -28 -23 -105 -85 -155 -126 -27 -23
-116 -107 -197 -187 -165 -165 -153 -136 -124 -300 9 -52 19 -106 21 -120 3
-14 7 -36 10 -50 7 -33 35 -191 35 -197 0 -3 35 41 78 98 156 209 334 395 498
521 16 12 31 25 34 28 4 5 122 90 177 128 62 42 159 102 167 102 5 0 17 6 25
14 9 8 63 37 121 66 58 28 112 55 121 60 34 18 270 111 294 116 6 1 43 14 83
28 39 13 72 23 72 21 0 -3 12 0 28 6 39 16 171 50 212 55 19 2 44 7 55 11 11
4 27 7 35 9 8 1 33 5 55 8 67 11 116 18 154 23 123 15 223 25 239 24 6 -1 20
-1 30 0 323 9 533 -3 812 -47 132 -20 475 -105 535 -132 11 -5 52 -20 90 -32
39 -13 87 -31 108 -42 20 -10 37 -16 37 -13 0 4 12 -1 28 -9 43 -24 222 -105
226 -103 2 1 12 -5 22 -13 11 -9 39 -26 64 -39 25 -13 64 -37 88 -53 24 -15
45 -28 48 -28 8 0 236 -156 259 -177 11 -10 29 -25 41 -33 53 -38 128 -105
243 -220 116 -116 158 -162 234 -259 15 -20 35 -45 44 -56 31 -36 179 -270
209 -327 16 -32 35 -58 42 -58 6 0 12 4 12 8 0 15 54 76 161 182 l106 106 -40
59 c-270 404 -565 716 -932 988 -49 37 -95 71 -102 77 -7 5 -15 10 -18 10 -3
0 -26 15 -52 34 -56 39 -250 156 -261 156 -4 0 -18 9 -32 20 -14 11 -32 20
-42 20 -9 0 -18 4 -20 9 -5 14 -244 121 -398 178 -147 54 -405 128 -515 147
-16 3 -41 8 -55 11 -25 5 -90 16 -125 21 -11 1 -20 3 -20 4 0 1 -13 3 -30 4
-16 2 -55 6 -85 10 -30 3 -75 9 -100 12 -51 6 -566 15 -571 10z"/>
<path d="M7777 7619 c-110 -25 -170 -106 -171 -229 -1 -69 2 -81 32 -131 39
-64 100 -98 188 -106 53 -5 141 16 171 41 88 72 119 190 78 293 -13 34 -75
106 -95 110 -3 1 -18 7 -35 13 -39 15 -120 19 -168 9z"/>
<path d="M1043 7179 c-41 -12 -96 -68 -110 -112 -11 -35 -10 -63 1 -122 3 -16
10 -61 16 -99 6 -38 12 -72 14 -75 2 -3 7 -28 10 -56 4 -27 9 -57 12 -66 2
-10 6 -30 9 -45 2 -16 10 -60 18 -99 9 -38 18 -83 21 -100 2 -16 11 -64 20
-105 8 -41 17 -87 20 -103 2 -15 7 -35 10 -45 3 -9 8 -29 11 -44 9 -48 14 -70
41 -188 15 -63 29 -126 31 -140 3 -14 7 -32 10 -40 3 -8 7 -22 9 -30 2 -8 13
-51 24 -95 12 -44 25 -98 30 -120 5 -22 30 -112 55 -200 25 -88 48 -167 50
-176 2 -9 14 -49 26 -90 13 -41 23 -76 24 -79 1 -3 9 -32 20 -65 10 -33 19
-62 20 -65 0 -3 21 -66 45 -140 24 -74 45 -139 46 -145 2 -5 16 -47 33 -93 17
-46 37 -102 45 -125 13 -40 97 -252 130 -328 14 -33 14 -36 -2 -36 -9 0 -21 3
-27 7 -5 4 -30 11 -55 15 -25 4 -54 9 -65 11 -103 21 -374 27 -462 10 -18 -3
-45 -8 -60 -10 -45 -7 -191 -46 -236 -63 -136 -52 -279 -139 -338 -205 -9 -10
-19 -18 -23 -18 -6 0 -111 -109 -162 -167 -82 -94 -182 -268 -227 -393 -57
-158 -68 -226 -71 -422 -3 -147 6 -225 39 -347 9 -31 17 -63 19 -71 9 -37 57
-152 91 -220 112 -223 270 -409 482 -569 102 -77 131 -95 253 -156 107 -54
263 -110 363 -130 107 -21 145 -27 217 -31 75 -5 217 -5 275 0 59 6 170 22
170 26 0 1 11 3 25 5 22 3 94 20 125 29 6 1 29 8 52 14 126 36 418 173 546
256 323 208 572 509 722 871 5 11 9 22 10 25 0 3 9 30 20 60 10 30 20 60 22
65 1 6 11 44 22 85 11 41 23 93 27 115 3 22 7 42 9 45 4 7 18 154 20 218 0 28
3 53 6 55 3 1 21 -16 40 -38 116 -136 247 -241 394 -317 65 -33 192 -81 247
-92 112 -23 155 -28 233 -29 100 -1 203 8 253 22 18 5 35 10 37 10 3 1 6 1 8
2 1 0 12 2 24 5 88 16 261 95 373 170 97 64 262 226 317 310 7 10 25 37 39 59
28 42 86 158 99 197 4 13 9 28 11 33 14 40 45 156 49 185 2 19 7 53 11 75 12
74 6 267 -11 355 -3 14 -8 39 -10 55 -3 17 -14 59 -24 93 -12 39 -15 59 -8 55
29 -17 202 -149 205 -155 2 -5 9 -8 16 -8 7 0 21 -8 32 -17 26 -23 82 -63 88
-63 3 0 24 -13 48 -28 24 -16 59 -38 78 -48 19 -10 37 -22 40 -25 7 -7 188
-93 225 -106 17 -6 39 -14 50 -19 65 -24 180 -44 256 -44 84 0 161 19 229 58
53 29 148 123 184 180 30 47 102 183 103 195 0 4 17 52 36 105 30 80 49 141
73 227 9 32 45 174 50 195 3 13 16 67 30 120 14 52 27 104 29 115 2 11 4 22 5
25 1 3 3 10 5 15 1 6 3 12 4 15 1 3 4 15 7 27 9 52 90 334 112 393 3 8 6 18 7
23 2 4 4 9 5 12 1 3 3 8 4 13 11 53 166 389 185 402 5 3 15 19 24 36 40 78
170 216 274 290 60 44 193 111 230 117 10 1 23 5 28 9 34 21 198 41 345 42
137 0 178 -5 290 -38 123 -35 151 -37 196 -12 54 30 104 99 104 142 0 77 -54
150 -140 190 -82 38 -102 44 -205 62 -53 8 -315 8 -385 -1 -104 -13 -129 -18
-223 -42 -34 -9 -69 -18 -77 -20 -32 -7 -158 -59 -225 -92 -189 -96 -323 -212
-501 -435 -8 -10 -10 -18 -6 -18 4 0 2 -4 -4 -8 -14 -9 -94 -139 -94 -152 0
-6 -4 -10 -10 -10 -5 0 -10 -6 -10 -12 0 -7 -15 -42 -33 -78 -74 -148 -167
-425 -217 -650 -17 -77 -42 -186 -44 -195 -2 -5 -6 -28 -11 -50 -9 -47 -11
-56 -24 -110 -6 -22 -12 -53 -15 -70 -3 -16 -15 -66 -26 -110 -12 -44 -23 -89
-25 -100 -3 -11 -17 -56 -31 -100 -119 -360 -297 -432 -619 -252 -38 22 -71
44 -73 48 -2 5 -9 9 -15 9 -13 0 -208 148 -269 205 -21 19 -38 33 -38 31 0 -9
-170 155 -401 387 -207 206 -263 257 -286 259 -15 0 -35 2 -43 3 -47 4 -126
-44 -157 -97 -36 -64 -31 -92 50 -249 178 -343 250 -598 251 -884 0 -191 -30
-333 -102 -485 -19 -41 -38 -77 -41 -80 -3 -3 -22 -27 -41 -55 -39 -57 -159
-175 -177 -175 -7 0 -13 -4 -13 -10 0 -5 -5 -10 -10 -10 -6 0 -27 -11 -48 -24
-42 -28 -165 -71 -232 -81 -89 -13 -250 -6 -303 14 -15 6 -38 13 -52 15 -33 6
-138 53 -205 92 -306 178 -592 578 -755 1059 -36 107 -58 140 -108 164 -85 40
-196 1 -238 -85 -26 -56 -23 -77 36 -244 36 -101 81 -249 91 -300 3 -14 7 -33
10 -42 14 -46 43 -217 51 -296 9 -89 9 -374 0 -437 -48 -344 -175 -610 -397
-834 -47 -47 -100 -97 -118 -111 -18 -14 -41 -32 -52 -40 -10 -8 -26 -21 -37
-27 -10 -7 -36 -25 -58 -39 -93 -62 -365 -193 -365 -176 0 4 -4 2 -8 -3 -7
-10 -181 -70 -232 -81 -132 -26 -182 -32 -295 -35 -64 -1 -152 6 -215 17 -14
3 -41 7 -60 10 -19 3 -42 8 -50 11 -17 7 -26 10 -55 17 -43 11 -111 38 -169
68 -34 17 -71 36 -83 42 -13 6 -23 14 -23 19 0 4 -5 7 -11 7 -34 0 -211 152
-310 266 -79 91 -187 289 -214 389 -5 17 -9 35 -11 40 -12 39 -26 104 -28 125
-1 14 -4 30 -6 35 -15 29 -1 240 21 330 5 22 12 51 15 64 3 13 14 44 24 67 11
24 20 50 20 58 0 9 5 16 10 16 6 0 10 7 10 15 0 21 123 199 178 257 26 27 49
54 50 59 2 5 10 9 17 9 7 0 16 7 19 16 11 29 256 137 394 173 112 30 279 32
392 7 64 -15 204 -69 220 -86 3 -3 32 -22 65 -44 64 -41 275 -249 275 -271 0
-7 4 -15 9 -17 25 -9 179 -256 280 -448 70 -134 96 -164 157 -179 73 -19 135
1 170 54 20 31 45 113 36 119 -4 3 -7 17 -6 33 1 38 -37 131 -87 211 -23 37
-45 69 -48 72 -6 5 -69 96 -140 204 -45 67 -77 125 -86 156 -4 14 -38 87 -76
162 -92 183 -259 564 -259 591 0 4 -8 27 -19 50 -30 68 -205 567 -206 589 0 3
-3 10 -7 14 -5 4 -8 17 -8 29 0 12 -3 25 -7 29 -4 3 -8 12 -9 19 -1 7 -21 73
-44 147 -23 74 -43 142 -45 150 -2 8 -25 87 -50 175 -25 88 -48 169 -50 180
-2 11 -22 92 -45 180 -23 88 -43 167 -45 175 -41 177 -57 250 -61 275 -3 17
-9 46 -14 65 -11 41 -46 215 -54 265 -2 11 -8 47 -14 80 -6 33 -14 77 -17 99
-3 21 -7 41 -9 45 -2 3 -7 31 -10 62 -4 31 -11 70 -15 87 -5 17 -7 32 -5 35 2
2 -2 23 -10 45 -9 23 -13 42 -10 42 3 0 -7 22 -22 49 -39 72 -118 103 -201 80z"/>
<path d="M827 5933 c-4 -6 -21 -51 -37 -99 -17 -49 -34 -96 -37 -104 -3 -8 -7
-19 -8 -25 -2 -5 -12 -41 -23 -80 -21 -70 -65 -259 -76 -325 -3 -19 -8 -48
-11 -65 -39 -227 -48 -345 -49 -625 0 -256 11 -441 30 -459 2 -2 14 1 27 7 21
11 132 53 152 58 6 2 35 10 65 19 30 8 71 18 90 21 49 8 49 8 42 67 -8 71 -6
326 3 417 13 137 8 435 -10 530 -2 14 -7 45 -10 70 -3 25 -13 79 -21 120 -9
41 -18 89 -21 105 -2 17 -20 91 -40 165 -19 74 -36 142 -38 150 -8 36 -22 63
-28 53z"/>
<path d="M7923 5630 c-3 -11 -9 -20 -13 -20 -5 0 -12 -9 -15 -21 -4 -11 -22
-47 -41 -80 -29 -51 -103 -232 -108 -264 -1 -5 -4 -14 -7 -20 -4 -5 -10 -28
-14 -50 -5 -22 -10 -47 -12 -55 -2 -8 -5 -27 -7 -42 -3 -15 -7 -36 -10 -46 -4
-10 -8 -53 -10 -95 -3 -42 -6 -80 -8 -84 -2 -4 -2 -44 0 -88 6 -145 9 -430 4
-439 -3 -4 -6 -31 -7 -60 -2 -44 -7 -88 -20 -181 -11 -82 -18 -120 -35 -195
-11 -47 -22 -97 -24 -111 -6 -36 -80 -272 -103 -329 -3 -8 -7 -19 -8 -25 -2
-5 -28 -67 -59 -137 -61 -140 -123 -261 -198 -381 -26 -43 -48 -83 -48 -88 0
-5 -4 -9 -10 -9 -5 0 -10 -5 -10 -10 0 -6 -4 -16 -10 -23 -5 -7 -53 -70 -106
-142 -53 -71 -105 -139 -115 -150 -73 -83 -136 -150 -210 -224 -75 -76 -109
-107 -234 -216 -16 -15 -41 -34 -55 -43 -14 -9 -37 -28 -52 -40 -14 -13 -59
-47 -100 -74 -40 -28 -76 -55 -79 -60 -3 -5 -9 -9 -12 -9 -4 0 -44 -23 -89
-52 -45 -29 -86 -51 -90 -50 -4 2 -8 -1 -8 -6 0 -21 -536 -270 -614 -285 -6
-1 -49 -15 -96 -30 -47 -15 -93 -30 -102 -32 -10 -2 -27 -6 -38 -9 -11 -3 -29
-7 -40 -9 -11 -3 -24 -7 -28 -10 -4 -2 -27 -7 -51 -11 -24 -3 -54 -10 -67 -16
-14 -5 -28 -8 -32 -7 -4 1 -20 -1 -37 -5 -16 -4 -46 -9 -65 -11 -35 -5 -91
-13 -140 -22 -143 -24 -569 -24 -759 1 -20 3 -54 7 -76 9 -22 3 -47 7 -55 10
-8 3 -33 8 -55 10 -52 6 -153 29 -273 62 -95 25 -337 109 -357 123 -17 12 -32
7 -67 -24 -52 -46 -186 -145 -198 -145 -5 0 -10 -4 -10 -9 0 -5 -8 -11 -17
-15 -21 -6 -51 -25 -71 -43 -7 -7 -18 -13 -23 -13 -5 0 -9 -4 -9 -9 0 -5 55
-32 123 -60 67 -29 131 -56 142 -61 28 -13 314 -107 345 -114 14 -3 43 -10 65
-16 76 -19 220 -52 250 -56 17 -2 41 -6 55 -9 14 -3 45 -8 70 -11 25 -3 56 -7
70 -9 111 -21 231 -28 475 -29 212 -1 390 7 455 19 12 2 41 6 64 9 56 7 112
16 166 27 25 5 61 11 80 14 60 7 309 74 446 120 232 78 454 176 652 289 35 20
68 36 73 36 5 0 9 4 9 9 0 5 10 13 22 17 12 3 26 10 32 15 6 5 45 32 86 59 41
27 84 55 94 62 10 7 41 30 67 51 27 20 51 37 54 37 3 0 16 9 28 21 12 11 43
37 70 57 26 20 47 40 47 44 0 4 4 8 9 8 27 0 374 349 455 458 11 16 28 36 36
44 8 9 24 28 34 43 11 14 28 36 38 47 10 12 18 24 18 27 0 3 11 20 25 36 29
35 36 45 52 71 92 146 134 211 143 222 6 6 8 12 4 12 -3 0 -2 6 4 13 23 28
113 202 175 337 35 78 137 340 141 362 1 7 4 18 7 23 3 6 11 30 18 55 8 25 17
56 22 70 9 26 44 167 53 210 3 14 8 36 11 50 3 14 7 39 10 55 3 17 8 41 10 55
15 75 29 167 39 255 26 229 26 593 1 815 -12 102 -31 230 -39 270 -3 14 -10
48 -16 75 -5 28 -14 68 -19 90 -6 22 -10 41 -11 43 0 1 0 3 -1 5 -1 4 -8 31
-12 52 -13 56 -28 105 -33 105 -3 0 -8 -9 -11 -20z"/>
</g>
</svg>
