<svg xmlns="http://www.w3.org/2000/svg" width="46.909" height="29.942"><path data-name="behance" d="M36.331 29.942a10.883 10.883 0 0 1-8.1-3.173 11.528 11.528 0 0 1-2.984-8.179c0-6.628 4.661-11.438 11.083-11.438a9.89 9.89 0 0 1 7.864 3.5 12.745 12.745 0 0 1 2.714 8.2c0 .374-.024.745-.049 1.093a.717.717 0 0 1-.715.666H32.281c.176 1.836 1.114 3.722 4.224 3.722 1.471 0 3.308-.817 3.712-2.138a.717.717 0 0 1 .685-.507h4.911a.717.717 0 0 1 .681.938 10.518 10.518 0 0 1-3.757 5.507 10.818 10.818 0 0 1-6.406 1.809Zm0-21.356a9.343 9.343 0 0 0-6.978 2.857 10.288 10.288 0 0 0-2.671 7.147c0 6.025 3.788 9.918 9.65 9.918 4.254 0 6.965-1.716 8.458-5.38h-3.4a6.079 6.079 0 0 1-9.112 1.06 6.015 6.015 0 0 1-1.46-4.287.717.717 0 0 1 .717-.717h13.933c0-.109.006-.217.006-.326a11.318 11.318 0 0 0-2.38-7.282 8.5 8.5 0 0 0-6.763-2.99ZM14.28 29.413H.717A.717.717 0 0 1 0 28.696V.716a.717.717 0 0 1 .717-.717H13.91a12.337 12.337 0 0 1 6.653 1.487c2 1.264 3.009 3.337 3.009 6.162a6.506 6.506 0 0 1-2.87 5.7c2.695 1.3 4.157 3.809 4.157 7.219a8 8 0 0 1-3.321 6.775 12.48 12.48 0 0 1-7.258 2.071ZM1.433 27.98H14.28c6.742 0 9.144-3.826 9.144-7.407 0-2.326-.8-5.323-4.586-6.392a.717.717 0 0 1-.114-1.336 5.265 5.265 0 0 0 3.414-5.2c0-2.334-.766-3.953-2.342-4.951a11.013 11.013 0 0 0-5.886-1.265H1.433Zm12.01-3.319H6.868a.717.717 0 0 1-.717-.717v-7.705a.717.717 0 0 1 .717-.717h6.7a5.619 5.619 0 0 1 3.686 1.089 4.469 4.469 0 0 1 1.452 3.622c.002 2.855-1.868 4.428-5.262 4.428Zm-5.86-1.433h5.86c3.434 0 3.831-1.709 3.831-2.994 0-2.267-1.143-3.278-3.7-3.278H7.588Zm33.011-6.114h-9.056a.717.717 0 0 1-.715-.766 5.07 5.07 0 0 1 5.334-4.994c3.038 0 4.868 1.769 5.151 4.98a.717.717 0 0 1-.714.78Zm-8.233-1.433h7.407a3.285 3.285 0 0 0-3.613-2.893 3.574 3.574 0 0 0-3.793 2.892ZM13.103 12.74H6.868a.717.717 0 0 1-.717-.717V5.494a.717.717 0 0 1 .717-.717h5.771c2.25 0 4.933.679 4.933 3.914-.004 2.572-1.629 4.048-4.468 4.048Zm-5.52-1.433h5.52c3.033 0 3.033-1.968 3.033-2.615 0-2.186-1.769-2.481-3.5-2.481H7.581Zm34.164-5.648H30.402a.717.717 0 0 1-.717-.717V2.187a.717.717 0 0 1 .717-.717h11.345a.717.717 0 0 1 .717.717v2.755a.717.717 0 0 1-.717.715ZM31.118 4.226h9.912V2.902h-9.912Z" fill="#7983ff"/></svg>