<svg id="behance" xmlns="http://www.w3.org/2000/svg" width="46.909" height="29.942" viewBox="0 0 46.909 29.942">
  <path id="behance-2" data-name="behance" d="M311.163,475.81a10.883,10.883,0,0,1-8.1-3.173,11.528,11.528,0,0,1-2.984-8.179c0-6.628,4.661-11.438,11.083-11.438a9.89,9.89,0,0,1,7.864,3.5,12.745,12.745,0,0,1,2.714,8.2c0,.374-.024.745-.049,1.093a.717.717,0,0,1-.715.666H307.113c.176,1.836,1.114,3.722,4.224,3.722,1.471,0,3.308-.817,3.712-2.138a.717.717,0,0,1,.685-.507h4.911a.717.717,0,0,1,.681.938,10.518,10.518,0,0,1-3.757,5.507A10.818,10.818,0,0,1,311.163,475.81Zm0-21.356a9.343,9.343,0,0,0-6.978,2.857,10.288,10.288,0,0,0-2.671,7.147c0,6.025,3.788,9.918,9.65,9.918,4.254,0,6.965-1.716,8.458-5.38h-3.4a6.079,6.079,0,0,1-9.112,1.06,6.015,6.015,0,0,1-1.46-4.287.717.717,0,0,1,.717-.717H320.3c0-.109.006-.217.006-.326a11.318,11.318,0,0,0-2.38-7.282A8.5,8.5,0,0,0,311.163,454.454Zm-22.051,20.827H275.549a.717.717,0,0,1-.717-.717v-27.98a.717.717,0,0,1,.717-.717h13.193a12.337,12.337,0,0,1,6.653,1.487c2,1.264,3.009,3.337,3.009,6.162a6.506,6.506,0,0,1-2.87,5.7c2.695,1.3,4.157,3.809,4.157,7.219a8,8,0,0,1-3.321,6.775A12.48,12.48,0,0,1,289.112,475.281Zm-12.847-1.433h12.847c6.742,0,9.144-3.826,9.144-7.407,0-2.326-.8-5.323-4.586-6.392a.717.717,0,0,1-.114-1.336,5.265,5.265,0,0,0,3.414-5.2c0-2.334-.766-3.953-2.342-4.951a11.013,11.013,0,0,0-5.886-1.265H276.265Zm12.01-3.319H281.7a.717.717,0,0,1-.717-.717v-7.705a.717.717,0,0,1,.717-.717h6.7a5.619,5.619,0,0,1,3.686,1.089,4.469,4.469,0,0,1,1.452,3.622C293.54,468.956,291.67,470.529,288.276,470.529Zm-5.86-1.433h5.86c3.434,0,3.831-1.709,3.831-2.994,0-2.267-1.143-3.278-3.7-3.278h-5.986Zm33.011-6.114h-9.056a.717.717,0,0,1-.715-.766,5.07,5.07,0,0,1,5.334-4.994c3.038,0,4.868,1.769,5.151,4.98a.717.717,0,0,1-.714.78Zm-8.233-1.433H314.6a3.285,3.285,0,0,0-3.613-2.893A3.574,3.574,0,0,0,307.194,461.548Zm-19.258-2.941H281.7a.717.717,0,0,1-.717-.717v-6.529a.717.717,0,0,1,.717-.717h5.771c2.25,0,4.933.679,4.933,3.914C292.4,457.131,290.775,458.607,287.936,458.607Zm-5.52-1.433h5.52c3.033,0,3.033-1.968,3.033-2.615,0-2.186-1.769-2.481-3.5-2.481h-5.055Zm34.164-5.648H305.234a.717.717,0,0,1-.717-.717v-2.755a.717.717,0,0,1,.717-.717h11.345a.717.717,0,0,1,.717.717v2.755A.717.717,0,0,1,316.579,451.525Zm-10.629-1.433h9.912V448.77h-9.912Z" transform="translate(-274.832 -445.868)" fill="#48dcfe"/>
</svg>
