<svg id="github" xmlns="http://www.w3.org/2000/svg" width="46.909" height="50.233" viewBox="0 0 46.909 50.233">
  <path id="Path_3" data-name="Path 3" d="M1329.626,391.075l-1.02.216.385.97a11.02,11.02,0,0,1,.779,4.234v8.872a1.08,1.08,0,1,1-2.161,0v-8.872c0-2.787-.955-4.5-1.859-5.189a1.07,1.07,0,0,1,.524-1.925c2.921-.352,6.637-1.056,9.472-3.4,3-2.478,4.454-6.257,4.454-11.567a11.764,11.764,0,0,0-3.173-7.87,1.055,1.055,0,0,1-.2-1.027,10.75,10.75,0,0,0,.158-6.525l-.239-.819-.824.211a18.371,18.371,0,0,0-6.631,3.214,1.109,1.109,0,0,1-.943.117l-.018,0a29.665,29.665,0,0,0-15.872,0l-.014,0a1.121,1.121,0,0,1-.946-.119,18.014,18.014,0,0,0-6.935-3.241l-.8-.182-.235.788a10.531,10.531,0,0,0,.132,6.471,1.2,1.2,0,0,1-.246,1.191,10.537,10.537,0,0,0-3.114,7.818c.006,11.737,7.044,14.139,13.936,14.941a1.07,1.07,0,0,1,.613,1.844l-.047.047a6.449,6.449,0,0,0-1.646,3.54l-.009.056v10.51a1.08,1.08,0,1,1-2.159,0v-4.165l-.936.06c-6.546.415-9.459-3.26-10.149-5.5l-.026-.085-.044-.078a6.8,6.8,0,0,0-3.653-3.128l-.021-.006a1.081,1.081,0,0,1,.679-2.052,8.983,8.983,0,0,1,5.088,4.523c.022.053.042.107.06.163.136.434,1.435,4.025,7.025,4.025.377,0,.775-.018,1.191-.051l.807-.067v-4.238l-.007-.11c0-.021,0-.04,0-.05a9.7,9.7,0,0,1,.626-2.33l.4-.984-1.04-.211a16.36,16.36,0,0,1-8.777-4.329c-2.726-2.793-4.108-6.918-4.108-12.263v-.018a12.8,12.8,0,0,1,3-8.512l.283-.339-.1-.43a13.611,13.611,0,0,1,.612-8.233,1.073,1.073,0,0,1,.662-.626c.56-.16,3.5-.707,9.345,3.068l.327.211.375-.1a28.341,28.341,0,0,1,7.747-.934h.031a28.31,28.31,0,0,1,7.735.934l.377.1.327-.211c5.909-3.83,8.566-3.216,9.038-3.054l.025.009a1.049,1.049,0,0,1,.663.6,13.614,13.614,0,0,1,.59,8.252l-.1.421.273.337a13.606,13.606,0,0,1,3.019,8.478C1342.327,383.692,1338.054,389.281,1329.626,391.075Z" transform="translate(-1295.419 -356.225)" fill="#48dcfe"/>
</svg>
