<svg xmlns="http://www.w3.org/2000/svg" width="13.273" height="15.09" viewBox="0 0 13.273 15.09">
  <g id="github" transform="translate(0 0)">

    <path id="Path_3" data-name="Path 3" d="M1305.1,366.694l-.289.065.109.291a3.5,3.5,0,0,1,.22,1.272v2.665a.306.306,0,1,1-.611,0v-2.665a2.01,2.01,0,0,0-.526-1.559.328.328,0,0,1-.121-.223.318.318,0,0,1,.27-.355,4.927,4.927,0,0,0,2.68-1.022,4.351,4.351,0,0,0,1.26-3.475,3.653,3.653,0,0,0-.9-2.364.332.332,0,0,1-.057-.308,3.418,3.418,0,0,0,.045-1.96l-.068-.246-.234.064a5.078,5.078,0,0,0-1.876.966.3.3,0,0,1-.267.035h0a7.923,7.923,0,0,0-4.491,0h0a.3.3,0,0,1-.268-.036,4.969,4.969,0,0,0-1.962-.974l-.227-.055-.066.237a3.346,3.346,0,0,0,.037,1.944.378.378,0,0,1-.07.358,3.271,3.271,0,0,0-.881,2.348c0,3.526,1.993,4.247,3.943,4.488a.3.3,0,0,1,.188.1.336.336,0,0,1-.014.454l-.013.014a1.992,1.992,0,0,0-.466,1.063l0,.017v3.157a.306.306,0,1,1-.611,0v-1.251l-.265.018a2.592,2.592,0,0,1-2.872-1.652l-.008-.026-.012-.023a1.961,1.961,0,0,0-1.034-.94l-.006,0a.311.311,0,0,1-.177-.163.341.341,0,0,1-.016-.248.3.3,0,0,1,.385-.206,2.6,2.6,0,0,1,1.44,1.359c.006.016.012.032.017.049a1.885,1.885,0,0,0,1.988,1.209c.107,0,.219-.005.337-.015l.228-.02v-1.273l0-.033c0-.006,0-.012,0-.015a3.038,3.038,0,0,1,.177-.7l.114-.3-.294-.063a4.535,4.535,0,0,1-2.483-1.3,5.284,5.284,0,0,1-1.162-3.684v-.005a4,4,0,0,1,.848-2.557l.08-.1-.029-.129a4.322,4.322,0,0,1,.173-2.473.311.311,0,0,1,.187-.188c.159-.048.991-.212,2.644.921l.092.063.106-.03a7.579,7.579,0,0,1,2.192-.281h.009a7.568,7.568,0,0,1,2.188.281l.107.03.093-.063c1.672-1.151,2.424-.966,2.557-.917l.007,0a.305.305,0,0,1,.188.182,4.329,4.329,0,0,1,.167,2.479l-.029.126.077.1a4.244,4.244,0,0,1,.854,2.547C1308.692,364.476,1307.482,366.155,1305.1,366.694Z" transform="translate(-1295.418 -356.225)" fill="#e5e1e6"/>
  </g>
</svg>
