<svg xmlns="http://www.w3.org/2000/svg" width="45.57" height="45.57" viewBox="0 0 45.57 45.57">
  <g id="linkedin" transform="translate(0)">
    <path id="Path_4" data-name="Path 4" d="M1228.56,495.17h-9.12a.8.8,0,0,0-.8.8v29.35a.8.8,0,0,0,.8.8h9.12a.794.794,0,0,0,.79-.8V495.97A.794.794,0,0,0,1228.56,495.17Zm-.8,29.35h-7.52V496.76h7.52Zm24.01-30.09h-.19a10.817,10.817,0,0,0-7.35,2.86l-.42.39v-1.71a.8.8,0,0,0-.8-.8h-8.74a.8.8,0,0,0-.8.8v29.35a.8.8,0,0,0,.8.8h9.11a.794.794,0,0,0,.79-.8V510.79c0-4.78,1.36-6.73,4.67-6.73,3.33,0,3.94,2.34,3.94,6.97v14.29a.8.8,0,0,0,.8.8h9.11a.8.8,0,0,0,.8-.8V509.2C1263.49,496.19,1257.56,494.43,1251.77,494.43Zm10.12,30.09h-7.51V511.03a15.529,15.529,0,0,0-.68-5.47,4.81,4.81,0,0,0-4.84-3.1c-6.29,0-6.29,6.05-6.29,8.33v13.74h-7.51V496.76h7.15v3.21a.8.8,0,0,0,.8.8h.13a.794.794,0,0,0,.7-.43,8.821,8.821,0,0,1,7.93-4.31c3.99,0,6.69,1.19,8.24,3.65,1.3,2.06,1.88,5,1.88,9.52Z" transform="translate(-1217.92 -480.55)" fill="#48dcfe"/>
    <path id="Path_6" data-name="Path 6" d="M1228.31,482.34a6.109,6.109,0,1,0,1.78,4.32A6.1,6.1,0,0,0,1228.31,482.34Zm-4.32,8.77a4.48,4.48,0,0,1,0-8.96,4.49,4.49,0,0,1,4.49,4.48A4.5,4.5,0,0,1,1223.99,491.11Z" transform="translate(-1217.92 -480.55)" fill="#48dcfe"/>
  </g>
</svg>
