<svg version="1.1" id="logo-mobile" xmlns="http://www.w3.org/2000/svg" x="0" y="0" viewBox="0 0 48 42" style="enable-background:new 0 0 48 42" xml:space="preserve"><style>.st0{fill:#48dcfe}</style><g id="Ellipse_1_00000004523894737746310780000017583307717340731051_" transform="translate(3.033)"><path id="Path_57_00000025429316447829402860000012664133692738145701_" class="st0" d="M.6 16.1c-.1.2-.1.5-.2.7.1-.2.2-.5.2-.7z"/><path id="Path_58_00000147909635969329916990000007510263102836533895_" class="st0" d="M1 14.7c-.2.5-.3.9-.4 1.4.1-.5.3-.9.4-1.4z"/><path id="Path_59_00000021084089375114392760000003896616353195990682_" class="st0" d="m11.7 38.9-.6-.3.6.3z"/><path id="Path_60_00000125604069245931667260000007573843426480188044_" class="st0" d="m3.8 9.4-.1.1c.1 0 .1-.1.1-.1z"/><path id="Path_61_00000152955111928434695480000001205340268486697868_" class="st0" d="m5 7.9.2-.2c0 .1-.1.1-.2.2z"/><path id="Path_62_00000152970009097767687100000007990827635635092609_" class="st0" d="M7 6c-.3.2-.5.4-.7.6.2-.2.4-.4.7-.6z"/><path id="Path_63_00000143607754088947636180000003842910953901764002_" class="st0" d="m5.4 7.5.2-.2-.4.4.2-.2z"/><path id="Path_64_00000161593103556189560130000003292985865313415340_" class="st0" d="m6.3 6.6-.8.8.8-.8z"/><path id="Path_65_00000070798748165148619910000003258077624946341277_" class="st0" d="M10.9 3.4c.1-.1.2-.1.3-.1-.1 0-.3.1-.3.1-.1.1 0 .1 0 0z"/><path id="Path_66_00000145763640488875493130000000016091630878445215_" class="st0" d="M11.7 3c-.2.1-.3.2-.5.2.2 0 .3-.1.5-.2z"/><path id="Path_67_00000140717919779223242250000002697950232579854985_" class="st0" d="M14.7 39.9c-.5-.1-.9-.3-1.4-.4.5.2.9.3 1.4.4z"/><path id="Path_68_00000015335292929258208870000009933295953463553690_" class="st0" d="M14.7 2c-.5.1-.9.3-1.4.4.5-.1.9-.3 1.4-.4z"/><path id="Path_69_00000007400580984277982550000003961212546196433048_" class="st0" d="M15.7 40.2h-.2.2z"/><path id="Path_70_00000031189373244151220890000010127413278359223180_" class="st0" d="M24.5 39.9c-.5.1-.9.2-1.4.3.4 0 .9-.1 1.4-.3z"/><path id="Path_71_00000157288857474097513150000001649486933745324198_" class="st0" d="M24.5 2 23 1.7l1.5.3z"/><path id="Path_72_00000018200811598935247580000012989813404616588221_" class="st0" d="M27.4 38.9c.7-.3 1.4-.6 2-1-.6.4-1.3.7-2 1z"/><path id="Path_73_00000023240672261786058180000015733970550478034087_" class="st0" d="M37.5 29c-1.7 3.7-4.5 6.9-8 8.9 3.5-2.1 6.3-5.2 8-8.9z"/><path id="Path_74_00000089548203462548415360000011070706220755026584_" class="st0" d="M37.6 28.6c0 .1-.1.2-.1.3 0-.1.1-.2.1-.3z"/><path id="Path_75_00000163781051213415794300000004017608875293005474_" class="st0" d="M29.5 4.1c-.6-.4-1.3-.7-2-1 .6.3 1.3.6 2 1z"/><path id="Path_76_00000036947361487783724560000010287053688322832560_" class="st0" d="m34.5 8.4.1.1c0-.1 0-.1-.1-.1z"/><path id="Path_77_00000177466660870979646260000007095500511393883030_" class="st0" d="M34.7 8.5c-.1 0 0 0 0 0z"/><path id="Path_78_00000148626885839855480290000001260557893984551614_" class="st0" d="M32.8 6.5c-.2-.2-.4-.3-.6-.5.2.2.4.3.6.5z"/><path id="Path_79_00000111875307405670935900000015650044021044239505_" class="st0" d="M36.2 10.7c0-.1-.1-.1-.1-.2.1.1.1.1.1.2z"/><path id="Path_80_00000110473217486280696100000006460744589115536272_" class="st0" d="M38.5 25.9c-.1.5-.3.9-.4 1.4.2-.5.3-1 .4-1.4z"/><path id="Path_81_00000159466540467753243100000007247043905862783878_" class="st0" d="M38.5 16.1c-.1-.2-.1-.4-.2-.6.1.2.2.4.2.6z"/><path id="Path_82_00000178166319143785332700000002330118250726143395_" class="st0" d="M38.8 24.9v.1c-.1 0 0-.1 0-.1z"/><path id="Path_83_00000034782482442964718250000018381318135891731643_" class="st0" d="M38.6 16.5c0 .1.1.2.1.4-.1-.2-.1-.5-.2-.7.1 0 .1.1.1.3z"/><path id="Path_84_00000023983060334531622010000017169629953393782455_" class="st0" d="M.5 16.5v.1c0-.2.1-.3.1-.5 0 .1 0 .2-.1.4zM11.6 3.1c-.1 0-.1 0 0 0 0 0 .1 0 .2-.1-.1.1-.2.1-.2.1zm-.3.1-.1.1c.1 0 .2-.1.3-.1h-.2zm-.4.2s-.1.1 0 0h.1-.1zM5 7.9c.1-.1.1-.1 0 0 .1-.1.1-.1 0 0zm33.8 17zm-.3-8.8c0 .2.1.3.1.5 0-.2 0-.3-.1-.5zm-1.1 13V29c-.1.1-.1.2-.1.3 0-.1.1-.2.1-.2zM15.6 40.2s.1 0 0 0c.1 0 0 0 0 0zm-4-1.4c.1 0 .1 0 .2.1-.2 0-.3-.1-.2-.1-.1 0-.1 0 0 0zm-.3-.1s.1 0 .1.1c-.1 0-.2-.1-.3-.1h.2zm-.2-.1c0 .1.1.1 0 0z"/><path id="Path_85_00000087386475252456602290000006971460753848157111_" class="st0" d="M39.2 21c0 7-3.7 13.4-9.7 16.9-5.6 3.3-12.5 3.5-18.3.7.7-.4 1.4-.9 2-1.4 11.1 4.7 24.3-4.1 24-16.2-.2-1.9.2-3.9 1.3-5.5.1.2.1.4.2.6.3 1.6.5 3.2.5 4.9z"/><path id="Path_86_00000087373943756013068920000004978675569195297921_" class="st0" d="M2.1 21c0 .6 0 1.2.1 1.7-.7.1-1.4.3-2 .6-.3-2.4-.1-4.9.5-7.3.2-.7.4-1.5.7-2.2.7 2.4 1 4.8.7 7.2z"/><path id="Path_87_00000000224806341213136430000012046180188122221240_" class="st0" d="M36.2 10.7c-.6.5-1.1 1-1.5 1.6C29.3 1.6 12.3.6 5.5 10.6c-.1-.9-.3-1.8-.5-2.7C11.3 1 21.4-.6 29.4 4.1c1.4.8 2.7 1.8 3.8 2.9.5.4.9.9 1.3 1.4.7.7 1.2 1.5 1.7 2.3z"/></g><path id="Path_90_00000091733157925352388080000004119829186353815225_" class="st0" d="M48 11.8c-.9 1.3-1.2.1-3.1.2-10.2-.1-2.9 21.1-15.7 10.9 2.3 6.9-6.3 11.8-10.8 6 0 3.8-2.3 7.3-5.8 8.8-9.2 4.6-17.4-7.2-9.1-12.9 1.8-.9 3.8-1.1 5.7-.5-1.7-4-3-8.3-3.8-12.7-.2-1-.4-2-.6-3.1 0-.5.3-.9.8-1 1.1-.1 1.1 1.2 1.2 1.9 0 0 0 .1-.1.1l.1-.1c1 6.4 3.5 14 5.4 17.2.4 1.6 2.9 3.3 1.7 4.6-.4.3-1 .2-1.3-.3-1.8-3.7-4.1-6.8-8.7-4.3-5.2 4.5.4 12.2 6.8 9.8 5.2-1.7 7.3-6.3 4.7-12.8-.1-.5.1-1 .6-1.1.4-.1.9.1 1.1.5 3.8 11.7 14.5 6.1 8.9-3.3-.2-.4-.1-1 .4-1.2.4-.2.9-.1 1.1.2C39.4 31.3 34 17.3 40 12c2.6-2.5 8.5-2.3 8-.2z"/><path id="Path_91_00000063620154576541258420000005643945591937849989_" class="st0" d="M42.2 6.4c0 .7-.6 1.3-1.3 1.2-.7 0-1.2-.6-1.2-1.2 0-.7.6-1.3 1.3-1.2.7 0 1.2.6 1.2 1.2z"/></svg>