<svg xmlns="http://www.w3.org/2000/svg" width="48" height="39.141"><g data-name="Ellipse 1" fill="#7983ff"><path data-name="Path 57" d="M3.65 14.677c-.062.232-.115.473-.166.708.047-.242.107-.467.166-.708Z"/><path data-name="Path 58" d="M4.061 13.29c-.15.454-.287.912-.412 1.379.121-.467.258-.925.412-1.379Z"/><path data-name="Path 59" d="M14.753 37.499c-.206-.092-.415-.182-.617-.283.205.099.409.189.617.283Z"/><path data-name="Path 60" d="m6.833 7.986-.071.1.067-.1h.004Z"/><path data-name="Path 61" d="M8.082 6.444c.054-.054.1-.112.154-.162-.05.054-.1.112-.154.171Z"/><path data-name="Path 62" d="M10 4.599Z"/><path data-name="Path 63" d="M8.386 6.124c.059-.063.123-.121.183-.183-.11.115-.226.224-.333.341.05-.054.1-.108.15-.158Z"/><path data-name="Path 64" d="M9.304 5.217Z"/><path data-name="Path 65" d="M13.924 2.016Z"/><path data-name="Path 66" d="M14.752 1.629c-.173.079-.344.154-.512.237.168-.088.34-.16.512-.237Z"/><path data-name="Path 67" d="M17.719 38.528Z"/><path data-name="Path 68" d="M17.719.6c-.467.125-.925.262-1.379.412A18.93 18.93 0 0 1 17.719.6Z"/><path data-name="Path 69" d="M18.702 38.753c-.052-.006-.1-.023-.154-.033.053.014.108.02.154.033Z"/><path data-name="Path 70" d="M27.501 38.529Z"/><path data-name="Path 71" d="M27.501.599Z"/><path data-name="Path 72" d="M30.479 37.5a20.608 20.608 0 0 0 2-1.025 19.281 19.281 0 0 1-2 1.025Z"/><path data-name="Path 73" d="M40.491 27.555s0-.008.008-.017a19.6 19.6 0 0 1-8.012 8.936 19.866 19.866 0 0 0 8-8.92Z"/><path data-name="Path 74" d="M40.64 27.213a4.218 4.218 0 0 1-.138.317c.04-.109.094-.211.138-.317Z"/><path data-name="Path 75" d="M32.483 2.654a20.6 20.6 0 0 0-2-1.025 19.281 19.281 0 0 1 2 1.025Z"/><path data-name="Path 76" d="M37.566 6.941a1.076 1.076 0 0 1 .092.108c-.034-.034-.058-.072-.092-.108Z"/><path data-name="Path 77" d="M37.708 7.103a.229.229 0 0 0 .029.037l-.075-.087c.017.017.028.033.046.05Z"/><path data-name="Path 78" d="M35.792 5.095a16.073 16.073 0 0 0-.571-.5c.194.166.382.324.571.5Z"/><path data-name="Path 79" d="M39.279 9.282a7.298 7.298 0 0 0-.117-.183 1.693 1.693 0 0 1 .117.183Z"/><path data-name="Path 80" d="M41.579 24.459c-.121.467-.258.925-.412 1.379.149-.454.287-.912.412-1.379Z"/><path data-name="Path 81" d="M41.578 14.669c-.054-.2-.108-.392-.167-.587.062.191.117.387.167.587Z"/><path data-name="Path 82" d="M41.803 23.48c-.007.05-.023.1-.033.15.012-.05.019-.102.033-.15Z"/><path data-name="Path 83" d="M41.666 15.031c.029.117.054.233.079.354-.052-.235-.1-.477-.167-.708.028.124.058.237.088.354Z"/><path data-name="Path 84" d="m3.562 15.032-.025.117c.033-.158.071-.317.112-.471l-.087.354ZM14.59 1.7c-.029.017-.063.029-.092.046.083-.037.167-.079.254-.117-.054.025-.108.05-.162.071Zm-.225.1-.125.062c.083-.042.171-.083.258-.121l-.133.063Zm-.442.212a2.55 2.55 0 0 0-.092.05l.25-.125a3.876 3.876 0 0 1-.158.079ZM8.082 6.441v.008c.025-.033.054-.062.079-.092-.025.034-.054.059-.079.088Zm33.712 17.065c.007 0 .006-.021.008-.029a.293.293 0 0 0-.007.033Zm-.217-8.832c.042.154.079.312.112.471-.03-.155-.073-.307-.114-.472Zm-1.129 12.974.042-.1c-.05.1-.1.208-.146.312a1.85 1.85 0 0 0 .105-.209Zm-21.776 11.1h.029c-.008 0-.021 0-.033-.008l.007.01Zm-4.083-1.321c.054.021.108.046.162.071-.088-.037-.171-.079-.254-.117.03.019.064.031.093.048Zm-.225-.1c.046.021.088.042.133.058a4.072 4.072 0 0 1-.258-.121Zm-.229-.108a1.136 1.136 0 0 0 .1.046l-.1-.05.001.002Z"/><path data-name="Path 85" d="M42.195 19.564a19.7 19.7 0 0 1-9.707 16.911 19.6 19.6 0 0 1-18.344.737 11.546 11.546 0 0 0 1.971-1.4c11.109 4.7 24.256-4.115 24-16.244a8.183 8.183 0 0 1 1.3-5.482c.058.2.112.392.167.587a19.708 19.708 0 0 1 .613 4.891Z"/><path data-name="Path 86" d="M5.116 19.565a17.3 17.3 0 0 0 .088 1.746 8.77 8.77 0 0 0-2.025.633 19.723 19.723 0 0 1 .471-7.274 20.057 20.057 0 0 1 .7-2.166 16.028 16.028 0 0 1 .766 7.061Z"/><path data-name="Path 87" d="M39.274 9.286a9.173 9.173 0 0 0-1.487 1.566C32.306.174 15.287-.857 8.574 9.136c-.175-.869-.329-1.771-.492-2.683a19.655 19.655 0 0 1 24.4-3.8 19.8 19.8 0 0 1 3.8 2.916 16.349 16.349 0 0 1 1.275 1.371 19.453 19.453 0 0 1 1.717 2.346Z"/></g><path data-name="Path 90" d="M47.965 10.386c-.884 1.266-1.165.124-3.1.229-10.157-.09-2.852 21.063-15.7 10.9 2.3 6.868-6.31 11.811-10.815 6a9.658 9.658 0 0 1-5.812 8.836c-9.224 4.563-17.389-7.2-9.111-12.861a7.762 7.762 0 0 1 5.7-.512 68.972 68.972 0 0 1-3.724-12.749Q5.097 8.735 4.824 7.1a.9.9 0 0 1 .792-1.012c1.082-.118 1.065 1.173 1.208 1.908l-.067.1.071-.1c1.036 6.393 3.517 14 5.354 17.248.4 1.551 2.906 3.329 1.679 4.616a.911.911 0 0 1-1.272-.279c-1.826-3.67-4.087-6.8-8.694-4.254-5.175 4.473.366 12.169 6.812 9.778 5.179-1.743 7.3-6.286 4.746-12.832a.909.909 0 0 1 1.708-.612c3.8 11.677 14.459 6.145 8.9-3.329a.912.912 0 0 1 1.5-1.021c11.849 12.608 6.4-1.479 12.474-6.687 2.558-2.497 8.478-2.382 7.93-.238Z" fill="#7983ff"/><path data-name="Path 91" d="M42.223 5.016a1.284 1.284 0 0 1-2.566 0 1.284 1.284 0 0 1 2.566 0Z" fill="#7983ff"/></svg>