<svg id="logo-mobile-main" xmlns="http://www.w3.org/2000/svg" width="48" height="39.141" viewBox="0 0 48 39.141">
  <g id="Ellipse_1" data-name="Ellipse 1" transform="translate(3.033)">
    <path id="Path_57" data-name="Path 57" d="M1018.3,189.676c-.062.232-.115.473-.166.708C1018.181,190.142,1018.241,189.917,1018.3,189.676Z" transform="translate(-1017.683 -174.999)" fill="#7983ff"/>
    <path id="Path_58" data-name="Path 58" d="M1018.944,186.346c-.15.454-.287.912-.412,1.379C1018.653,187.258,1018.79,186.8,1018.944,186.346Z" transform="translate(-1017.916 -173.056)" fill="#7983ff"/>
    <path id="Path_59" data-name="Path 59" d="M1044.319,244.053c-.206-.092-.415-.182-.617-.283a0,0,0,0,0,0,0C1043.907,243.869,1044.111,243.959,1044.319,244.053Z" transform="translate(-1032.599 -206.554)" fill="#7983ff"/>
    <path id="Path_60" data-name="Path 60" d="M1026.073,173.61l-.071.1c.021-.033.046-.067.067-.1A0,0,0,0,0,1026.073,173.61Z" transform="translate(-1022.273 -165.624)" fill="#7983ff"/>
    <path id="Path_61" data-name="Path 61" d="M1029.172,169.688c.054-.054.1-.112.154-.162-.05.054-.1.112-.154.171Z" transform="translate(-1024.123 -163.244)" fill="#7983ff"/>
    <path id="Path_62" data-name="Path 62" d="M1032.8,165.486c-.238.2-.467.407-.695.618C1032.331,165.893,1032.565,165.686,1032.8,165.486Z" transform="translate(-1025.833 -160.887)" fill="#7983ff"/>
    <path id="Path_63" data-name="Path 63" d="M1029.692,168.89c.059-.063.123-.121.183-.183-.11.115-.226.224-.333.341C1029.592,168.994,1029.642,168.94,1029.692,168.89Z" transform="translate(-1024.339 -162.766)" fill="#7983ff"/>
    <path id="Path_64" data-name="Path 64" d="M1031.076,166.97c-.255.23-.5.477-.735.724C1030.579,167.445,1030.823,167.2,1031.076,166.97Z" transform="translate(-1024.805 -161.753)" fill="#7983ff"/>
    <path id="Path_65" data-name="Path 65" d="M1043.064,159.076c.1-.05.208-.1.317-.15-.138.063-.275.129-.408.2C1043,159.109,1043.03,159.093,1043.064,159.076Z" transform="translate(-1032.173 -157.06)" fill="#7983ff"/>
    <path id="Path_66" data-name="Path 66" d="M1044.464,158.356c-.173.079-.344.154-.512.237C1044.12,158.505,1044.292,158.433,1044.464,158.356Z" transform="translate(-1032.745 -156.727)" fill="#7983ff"/>
    <path id="Path_67" data-name="Path 67" d="M1050.371,246.348c-.467-.121-.925-.258-1.379-.412C1049.446,246.086,1049.9,246.223,1050.371,246.348Z" transform="translate(-1035.685 -207.82)" fill="#7983ff"/>
    <path id="Path_68" data-name="Path 68" d="M1050.371,155.886c-.467.125-.925.262-1.379.412C1049.446,156.144,1049.9,156.007,1050.371,155.886Z" transform="translate(-1035.685 -155.286)" fill="#7983ff"/>
    <path id="Path_69" data-name="Path 69" d="M1054.446,247.419c-.052-.006-.1-.023-.154-.033C1054.345,247.4,1054.4,247.406,1054.446,247.419Z" transform="translate(-1038.777 -208.666)" fill="#7983ff"/>
    <path id="Path_70" data-name="Path 70" d="M1073.793,246.926c-.467.121-.942.225-1.421.312C1072.851,247.151,1073.322,247.043,1073.793,246.926Z" transform="translate(-1049.325 -208.397)" fill="#7983ff"/>
    <path id="Path_71" data-name="Path 71" d="M1073.793,155.448c-.471-.117-.942-.225-1.421-.312C1072.851,155.223,1073.326,155.328,1073.793,155.448Z" transform="translate(-1049.325 -154.849)" fill="#7983ff"/>
    <path id="Path_72" data-name="Path 72" d="M1082.932,243.021a20.608,20.608,0,0,0,2-1.025A19.281,19.281,0,0,1,1082.932,243.021Z" transform="translate(-1055.486 -205.521)" fill="#7983ff"/>
    <path id="Path_73" data-name="Path 73" d="M1095.755,220.563s0-.008.008-.017a19.6,19.6,0,0,1-8.012,8.936,19.866,19.866,0,0,0,8-8.92Z" transform="translate(-1058.297 -193.008)" fill="#7983ff"/>
    <path id="Path_74" data-name="Path 74" d="M1107.129,219.766c-.042.108-.087.212-.138.317C1107.031,219.974,1107.085,219.872,1107.129,219.766Z" transform="translate(-1069.522 -192.553)" fill="#7983ff"/>
    <path id="Path_75" data-name="Path 75" d="M1084.936,159.381a20.6,20.6,0,0,0-2-1.025A19.281,19.281,0,0,1,1084.936,159.381Z" transform="translate(-1055.486 -156.727)" fill="#7983ff"/>
    <path id="Path_76" data-name="Path 76" d="M1099.942,171.106a1.076,1.076,0,0,1,.092.108C1100,171.18,1099.976,171.142,1099.942,171.106Z" transform="translate(-1065.409 -164.165)" fill="#7983ff"/>
    <path id="Path_77" data-name="Path 77" d="M1100.218,171.426a.229.229,0,0,0,.029.037l-.075-.087C1100.189,171.393,1100.2,171.409,1100.218,171.426Z" transform="translate(-1065.543 -164.323)" fill="#7983ff"/>
    <path id="Path_78" data-name="Path 78" d="M1094.883,165.976c-.187-.171-.375-.337-.571-.5C1094.506,165.642,1094.694,165.8,1094.883,165.976Z" transform="translate(-1062.124 -160.881)" fill="#7983ff"/>
    <path id="Path_79" data-name="Path 79" d="M1103.883,176.475a0,0,0,0,0,0,0c-.038-.062-.079-.125-.117-.183A1.693,1.693,0,0,1,1103.883,176.475Z" transform="translate(-1067.637 -167.193)" fill="#7983ff"/>
    <path id="Path_80" data-name="Path 80" d="M1108.995,213.156c-.121.467-.258.925-.412,1.379C1108.732,214.081,1108.87,213.623,1108.995,213.156Z" transform="translate(-1070.449 -188.697)" fill="#7983ff"/>
    <path id="Path_81" data-name="Path 81" d="M1109.339,188.828c-.054-.2-.108-.392-.167-.587l0,0C1109.234,188.432,1109.289,188.628,1109.339,188.828Z" transform="translate(-1070.794 -174.159)" fill="#7983ff"/>
    <path id="Path_82" data-name="Path 82" d="M1110.065,210.806c-.007.05-.023.1-.033.15C1110.044,210.906,1110.051,210.854,1110.065,210.806Z" transform="translate(-1071.295 -187.326)" fill="#7983ff"/>
    <path id="Path_83" data-name="Path 83" d="M1109.66,190.03c.029.117.054.233.079.354-.052-.235-.1-.477-.167-.708C1109.6,189.8,1109.63,189.913,1109.66,190.03Z" transform="translate(-1071.027 -174.999)" fill="#7983ff"/>
    <path id="Path_84" data-name="Path 84" d="M1018.287,171.759c-.008.038-.017.079-.025.117.033-.158.071-.317.112-.471C1018.345,171.525,1018.316,171.642,1018.287,171.759Zm11.028-13.332c-.029.017-.063.029-.092.046.083-.037.167-.079.254-.117C1029.423,158.381,1029.369,158.406,1029.315,158.427Zm-.225.1-.125.062c.083-.042.171-.083.258-.121C1029.177,158.489,1029.136,158.51,1029.09,158.531Zm-.442.212c-.033.017-.062.033-.092.05l.25-.125C1028.752,158.693,1028.7,158.718,1028.648,158.743Zm-5.841,4.429v.008c.025-.033.054-.062.079-.092C1022.861,163.118,1022.832,163.143,1022.807,163.172Zm33.712,17.065c.007,0,.006-.021.008-.029A.293.293,0,0,0,1056.52,180.237Zm-.217-8.832c.042.154.079.312.112.471C1056.384,171.717,1056.341,171.565,1056.3,171.4Zm-1.129,12.974c.013-.029.025-.062.042-.1-.05.1-.1.208-.146.312C1055.107,184.524,1055.141,184.453,1055.174,184.378Zm-21.776,11.1c.008,0,.021,0,.029,0-.008,0-.021,0-.033-.008A0,0,0,0,0,1033.4,195.477Zm-4.083-1.321c.054.021.108.046.162.071-.088-.037-.171-.079-.254-.117C1029.252,194.127,1029.286,194.139,1029.315,194.156Zm-.225-.1c.046.021.088.042.133.058-.088-.037-.175-.079-.258-.121Zm-.229-.108a1.136,1.136,0,0,0,.1.046l-.1-.05A0,0,0,0,1,1028.861,193.944Z" transform="translate(-1017.758 -156.727)" fill="#7983ff"/>
    <path id="Path_85" data-name="Path 85" d="M1071.767,193.729a19.7,19.7,0,0,1-9.707,16.911h0a19.6,19.6,0,0,1-18.344.737,11.546,11.546,0,0,0,1.971-1.4c11.109,4.7,24.256-4.115,24-16.244a8.183,8.183,0,0,1,1.3-5.482c.058.2.112.392.167.587A19.708,19.708,0,0,1,1071.767,193.729Z" transform="translate(-1032.605 -174.165)" fill="#7983ff"/>
    <path id="Path_86" data-name="Path 86" d="M1019.135,191.518a17.3,17.3,0,0,0,.088,1.746,8.77,8.77,0,0,0-2.025.633,19.723,19.723,0,0,1,.471-7.274,20.057,20.057,0,0,1,.7-2.166A16.028,16.028,0,0,1,1019.135,191.518Z" transform="translate(-1017.052 -171.953)" fill="#7983ff"/>
    <path id="Path_87" data-name="Path 87" d="M1060.364,163.733a9.173,9.173,0,0,0-1.487,1.566c-5.481-10.678-22.5-11.709-29.213-1.716-.175-.869-.329-1.771-.492-2.683a19.655,19.655,0,0,1,24.4-3.8h0a19.8,19.8,0,0,1,3.8,2.916,16.349,16.349,0,0,1,1.275,1.371A19.453,19.453,0,0,1,1060.364,163.733Z" transform="translate(-1024.123 -154.447)" fill="#7983ff"/>
  </g>
  <path id="Path_90" data-name="Path 90" d="M1057.738,173.327c-.884,1.266-1.165.124-3.1.229-10.157-.09-2.852,21.063-15.7,10.9,2.3,6.868-6.31,11.811-10.815,6a9.658,9.658,0,0,1-5.812,8.836c-9.224,4.563-17.389-7.2-9.111-12.861v0a7.762,7.762,0,0,1,5.7-.512,68.972,68.972,0,0,1-3.724-12.749l0,0,0,0q-.306-1.494-.579-3.129a.9.9,0,0,1,.792-1.012c1.082-.118,1.065,1.173,1.208,1.908-.021.033-.046.067-.067.1l.071-.1c1.036,6.393,3.517,14,5.354,17.248.4,1.551,2.906,3.329,1.679,4.616a.911.911,0,0,1-1.272-.279c-1.826-3.67-4.087-6.8-8.694-4.254h0v0c-5.175,4.473.366,12.169,6.812,9.778,5.179-1.743,7.3-6.286,4.746-12.832a.909.909,0,0,1,1.708-.612c3.8,11.677,14.459,6.145,8.9-3.329a.912.912,0,0,1,1.5-1.021c11.849,12.608,6.4-1.479,12.474-6.687a0,0,0,0,1,0,0C1052.366,171.068,1058.286,171.183,1057.738,173.327Z" transform="translate(-1009.773 -162.941)" fill="#7983ff"/>
  <path id="Path_91" data-name="Path 91" d="M1107.528,164.739a1.284,1.284,0,0,1-2.566,0A1.284,1.284,0,0,1,1107.528,164.739Z" transform="translate(-1065.305 -159.723)" fill="#7983ff"/>
</svg>
