<svg xmlns="http://www.w3.org/2000/svg" viewBox="0 0 367.58 93.95"><g id="Layer_2" data-name="Layer 2"><g id="brand_styleguide" data-name="brand styleguide"><g id="Ellipse_1" data-name="Ellipse 1"><path d="M8.76,35.23c-.15.56-.28,1.13-.4,1.7C8.47,36.35,8.62,35.81,8.76,35.23Z" style="fill:#7983ff"/><path d="M9.75,31.9c-.36,1.09-.69,2.19-1,3.31C9.05,34.09,9.38,33,9.75,31.9Z" style="fill:#7983ff"/><path d="M35.41,90c-.5-.22-1-.44-1.48-.68a0,0,0,0,0,0,0C34.42,89.57,34.91,89.78,35.41,90Z" style="fill:#7983ff"/><path d="M16.4,19.17l-.17.23.16-.24A0,0,0,0,0,16.4,19.17Z" style="fill:#7983ff"/><path d="M19.4,15.47l.37-.39-.37.41Z" style="fill:#7983ff"/><path d="M20.13,14.7l.44-.44c-.27.28-.54.54-.8.82Z" style="fill:#7983ff"/><path d="M22.33,12.52c-.61.55-1.19,1.15-1.76,1.74C21.14,13.67,21.72,13.08,22.33,12.52Z" style="fill:#7983ff"/><path d="M24,11c-.57.47-1.12,1-1.67,1.48C22.88,12,23.44,11.52,24,11Z" style="fill:#7983ff"/><path d="M33.42,4.84c.25-.12.5-.25.76-.36-.33.15-.66.31-1,.48Z" style="fill:#7983ff"/><path d="M35.41,3.91c-.42.19-.83.37-1.23.57C34.58,4.27,35,4.09,35.41,3.91Z" style="fill:#7983ff"/><path d="M42.53,92.48c-1.12-.29-2.22-.62-3.31-1C40.31,91.85,41.41,92.18,42.53,92.48Z" style="fill:#7983ff"/><path d="M42.53,1.44c-1.12.3-2.22.63-3.31,1C40.31,2.06,41.41,1.73,42.53,1.44Z" style="fill:#7983ff"/><path d="M44.89,93c-.13,0-.25-.06-.37-.08Z" style="fill:#7983ff"/><path d="M66,92.48c-1.12.29-2.26.54-3.41.75C63.75,93,64.88,92.76,66,92.48Z" style="fill:#7983ff"/><path d="M66,1.44C64.88,1.16,63.75.9,62.6.69,63.75.9,64.89,1.15,66,1.44Z" style="fill:#7983ff"/><path d="M73.16,90A49.45,49.45,0,0,0,78,87.55,46.29,46.29,0,0,1,73.16,90Z" style="fill:#7983ff"/><path d="M97.19,66.14s0,0,0,0A47.11,47.11,0,0,1,78,87.55,47.7,47.7,0,0,0,97.19,66.14Z" style="fill:#7983ff"/><path d="M97.55,65.32c-.1.26-.21.51-.33.76C97.31,65.82,97.44,65.58,97.55,65.32Z" style="fill:#7983ff"/><path d="M78,6.37a49.45,49.45,0,0,0-4.81-2.46A46.29,46.29,0,0,1,78,6.37Z" style="fill:#7983ff"/><path d="M90.17,16.66a2.53,2.53,0,0,1,.22.26C90.31,16.84,90.25,16.75,90.17,16.66Z" style="fill:#7983ff"/><path d="M90.51,17.05l.07.09-.18-.21Z" style="fill:#7983ff"/><path d="M85.91,12.23c-.45-.41-.9-.81-1.37-1.2C85,11.43,85.46,11.81,85.91,12.23Z" style="fill:#7983ff"/><path d="M94.28,22.28h0L94,21.85A4,4,0,0,1,94.28,22.28Z" style="fill:#7983ff"/><path d="M99.8,58.71c-.29,1.12-.62,2.22-1,3.31C99.17,60.93,99.5,59.83,99.8,58.71Z" style="fill:#7983ff"/><path d="M99.8,35.21c-.13-.47-.26-.94-.4-1.41h0C99.55,34.26,99.68,34.73,99.8,35.21Z" style="fill:#7983ff"/><path d="M100.34,56.36c0,.12-.06.24-.08.36C100.29,56.6,100.3,56.48,100.34,56.36Z" style="fill:#7983ff"/><path d="M100,36.08c.07.28.13.56.19.85-.13-.57-.25-1.14-.4-1.7Z" style="fill:#7983ff"/></g><g id="Ellipse_1-2" data-name="Ellipse 1"><path d="M8.76,35.23c-.15.56-.28,1.13-.4,1.7C8.47,36.35,8.62,35.81,8.76,35.23Z" style="fill:#7983ff"/><path d="M9.75,31.9c-.36,1.09-.69,2.19-1,3.31C9.05,34.09,9.38,33,9.75,31.9Z" style="fill:#7983ff"/><path d="M35.41,90c-.5-.22-1-.44-1.48-.68a0,0,0,0,0,0,0C34.42,89.57,34.91,89.78,35.41,90Z" style="fill:#7983ff"/><path d="M16.4,19.17l-.17.23.16-.24A0,0,0,0,0,16.4,19.17Z" style="fill:#7983ff"/><path d="M19.4,15.47l.37-.39-.37.41Z" style="fill:#7983ff"/><path d="M24,11c-.57.47-1.12,1-1.67,1.48C22.88,12,23.44,11.52,24,11Z" style="fill:#7983ff"/><path d="M20.13,14.7l.44-.44c-.27.28-.54.54-.8.82Z" style="fill:#7983ff"/><path d="M22.33,12.52c-.61.55-1.19,1.15-1.76,1.74C21.14,13.67,21.72,13.08,22.33,12.52Z" style="fill:#7983ff"/><path d="M33.42,4.84c.25-.12.5-.25.76-.36-.33.15-.66.31-1,.48Z" style="fill:#7983ff"/><path d="M35.41,3.91c-.42.19-.83.37-1.23.57C34.58,4.27,35,4.09,35.41,3.91Z" style="fill:#7983ff"/><path d="M42.53,92.48c-1.12-.29-2.22-.62-3.31-1C40.31,91.85,41.41,92.18,42.53,92.48Z" style="fill:#7983ff"/><path d="M42.53,1.44c-1.12.3-2.22.63-3.31,1C40.31,2.06,41.41,1.73,42.53,1.44Z" style="fill:#7983ff"/><path d="M44.89,93c-.13,0-.25-.06-.37-.08Z" style="fill:#7983ff"/><path d="M66,92.48c-1.12.29-2.26.54-3.41.75C63.75,93,64.88,92.76,66,92.48Z" style="fill:#7983ff"/><path d="M66,1.44C64.88,1.16,63.75.9,62.6.69,63.75.9,64.89,1.15,66,1.44Z" style="fill:#7983ff"/><path d="M73.16,90A49.45,49.45,0,0,0,78,87.55,46.29,46.29,0,0,1,73.16,90Z" style="fill:#7983ff"/><path d="M97.19,66.14s0,0,0,0A47.11,47.11,0,0,1,78,87.55,47.7,47.7,0,0,0,97.19,66.14Z" style="fill:#7983ff"/><path d="M97.55,65.32c-.1.26-.21.51-.33.76C97.31,65.82,97.44,65.58,97.55,65.32Z" style="fill:#7983ff"/><path d="M78,6.37a49.45,49.45,0,0,0-4.81-2.46A46.29,46.29,0,0,1,78,6.37Z" style="fill:#7983ff"/><path d="M90.17,16.66a2.53,2.53,0,0,1,.22.26C90.31,16.84,90.25,16.75,90.17,16.66Z" style="fill:#7983ff"/><path d="M90.51,17.05l.07.09-.18-.21Z" style="fill:#7983ff"/><path d="M85.91,12.23c-.45-.41-.9-.81-1.37-1.2C85,11.43,85.46,11.81,85.91,12.23Z" style="fill:#7983ff"/><path d="M94.28,22.28h0L94,21.85A4,4,0,0,1,94.28,22.28Z" style="fill:#7983ff"/><path d="M99.8,58.71c-.29,1.12-.62,2.22-1,3.31C99.17,60.93,99.5,59.83,99.8,58.71Z" style="fill:#7983ff"/><path d="M99.8,35.21c-.13-.47-.26-.94-.4-1.41h0C99.55,34.26,99.68,34.73,99.8,35.21Z" style="fill:#7983ff"/><path d="M100.34,56.36c0,.12-.06.24-.08.36C100.29,56.6,100.3,56.48,100.34,56.36Z" style="fill:#7983ff"/><path d="M100,36.08c.07.28.13.56.19.85-.13-.57-.25-1.14-.4-1.7Z" style="fill:#7983ff"/><path d="M8.55,36.08l-.06.28c.08-.38.17-.76.27-1.13ZM35,4.08l-.22.11.61-.28Zm-.54.25-.3.15.62-.29Zm-1.06.51L33.2,5l.6-.3Zm-14,10.63v0c.06-.08.13-.15.19-.22Zm80.92,41s0,0,0-.07A.64.64,0,0,0,100.32,56.43Zm-.52-21.2c.1.37.19.75.27,1.13C100,36,99.89,35.61,99.8,35.23ZM97.09,66.37c0-.07.06-.15.1-.23l-.35.75C96.93,66.72,97,66.55,97.09,66.37ZM44.82,93h.07l-.08,0A0,0,0,0,0,44.82,93ZM35,89.84l.39.17-.61-.28Zm-.54-.25.32.14-.62-.29Zm-.55-.26.25.11-.24-.12A0,0,0,0,1,33.93,89.33Z" style="fill:#7983ff"/><path d="M101.28,47A46.74,46.74,0,0,1,87.11,80.55a47.41,47.41,0,0,1-9.13,7h0a47,47,0,0,1-44,1.77A27.71,27.71,0,0,0,38.67,86c26.66,11.29,58.22-9.88,57.61-39A19.61,19.61,0,0,1,99.4,33.8c.14.47.27.94.4,1.41A47.71,47.71,0,0,1,101.28,47Z" style="fill:#7983ff"/><path d="M12.28,47a41.54,41.54,0,0,0,.21,4.19,21.11,21.11,0,0,0-4.86,1.52A46.54,46.54,0,0,1,10.44,30C12.12,36,13.15,40.92,12.28,47Z" style="fill:#7983ff"/><path d="M94.27,22.29a22,22,0,0,0-3.57,3.76C77.54.42,36.69-2.06,20.58,21.93c-.42-2.09-.79-4.25-1.18-6.44C33.67-.85,59.41-4.88,78,6.37h0a47.41,47.41,0,0,1,9.13,7,39.71,39.71,0,0,1,3.06,3.29A46.27,46.27,0,0,1,94.27,22.29Z" style="fill:#7983ff"/></g><path d="M16.39,19.16l-.16.24.17-.23A0,0,0,0,1,16.39,19.16Z" style="fill:#7983ff"/><path d="M16.4,19.17l-.17.23.16-.24A0,0,0,0,0,16.4,19.17Z" style="fill:#7983ff"/><path d="M115.13,24.93c-2.12,3-2.8.3-7.44.55C83.31,25.27,100.84,76,70,51.65,75.53,68.13,54.86,80,44.05,66A23.2,23.2,0,0,1,30.1,87.25C8,98.2-11.64,70,8.23,56.38h0a18.62,18.62,0,0,1,13.69-1.23c-3.27-7.54-7-20.26-8.94-30.6h0q-.73-3.59-1.39-7.51a2.17,2.17,0,0,1,1.9-2.43c2.6-.28,2.56,2.81,2.9,4.58l-.16.24.17-.23c2.48,15.34,8.44,33.59,12.85,41.4.95,3.72,7,8,4,11.08A2.18,2.18,0,0,1,30.23,71c-4.38-8.81-9.81-16.33-20.87-10.21h0C-3.07,71.52,10.23,90,25.7,84.25c12.43-4.18,17.51-15.09,11.39-30.8-.85-2.58,3.12-4,4.1-1.47,9.13,28,34.71,14.75,21.36-8-1.29-2.22,2-4.46,3.59-2.45C94.58,71.8,81.49,38,96.08,25.49h0C102.24,19.51,116.45,19.78,115.13,24.93Z" style="fill:#7983ff"/><path d="M101.35,12c.05,4-6.22,4-6.16,0S101.41,8.05,101.35,12Z" style="fill:#7983ff"/><path d="M156.33,44.22a11.46,11.46,0,0,1-5.62-1.36,9.77,9.77,0,0,1-3.85-3.8,11.23,11.23,0,0,1-1.39-5.66,12.09,12.09,0,0,1,1.37-5.8,10,10,0,0,1,3.81-4,11.18,11.18,0,0,1,5.72-1.41,10.77,10.77,0,0,1,5.45,1.35,9.6,9.6,0,0,1,3.7,3.7,10.35,10.35,0,0,1,1.34,5.22c0,.31,0,.63,0,1s0,.69-.06,1.06H150.84a5.43,5.43,0,0,0,1.71,3.84,5.38,5.38,0,0,0,3.74,1.4,5,5,0,0,0,2.77-.74,4.65,4.65,0,0,0,1.67-1.93h5.49a10,10,0,0,1-2,3.62,9.81,9.81,0,0,1-3.39,2.56A10.65,10.65,0,0,1,156.33,44.22Zm0-17.59a5.83,5.83,0,0,0-3.51,1.12,5.2,5.2,0,0,0-1.94,3.4h10.44a4.55,4.55,0,0,0-1.52-3.29A5.06,5.06,0,0,0,156.37,26.63Z" style="fill:#7983ff"/><path d="M181.06,44.22a9.83,9.83,0,0,1-5.29-1.44,10.29,10.29,0,0,1-3.67-3.93,11.6,11.6,0,0,1-1.36-5.67,11.48,11.48,0,0,1,1.36-5.64,10.18,10.18,0,0,1,3.67-3.89,10,10,0,0,1,5.29-1.41,9.18,9.18,0,0,1,4.14.88,7.55,7.55,0,0,1,2.87,2.5V13.28h5.41V43.71h-4.81l-.6-3a9.64,9.64,0,0,1-2.68,2.45A8,8,0,0,1,181.06,44.22Zm1.14-4.74a5.66,5.66,0,0,0,4.29-1.75,6.28,6.28,0,0,0,1.67-4.5,6.3,6.3,0,0,0-1.67-4.51,6.13,6.13,0,0,0-8.56,0,6.14,6.14,0,0,0-1.69,4.48,6.29,6.29,0,0,0,1.69,4.53A5.66,5.66,0,0,0,182.2,39.48Z" style="fill:#7983ff"/><path d="M206.84,44.22a7.58,7.58,0,0,1-6.06-2.46q-2.15-2.44-2.14-7.18V22.74H204V34.07a6.63,6.63,0,0,0,1.1,4.14,4.06,4.06,0,0,0,3.46,1.44,4.74,4.74,0,0,0,3.7-1.61,6.43,6.43,0,0,0,1.46-4.48V22.74h5.41v21h-4.78l-.42-3.55a7.4,7.4,0,0,1-2.81,3A8.22,8.22,0,0,1,206.84,44.22Z" style="fill:#7983ff"/><path d="M231.91,44.22a9.86,9.86,0,0,1-4.44-.87,6,6,0,0,1-2.58-2.3,6.1,6.1,0,0,1-.85-3.17,5.77,5.77,0,0,1,2.28-4.74q2.3-1.82,6.85-1.82h5.33v-.5a3.86,3.86,0,0,0-1.23-3.17,4.6,4.6,0,0,0-3-1,5.2,5.2,0,0,0-2.87.78,3.4,3.4,0,0,0-1.53,2.31h-5.28a7.38,7.38,0,0,1,1.54-4,8.65,8.65,0,0,1,3.45-2.59,11.77,11.77,0,0,1,4.73-.91,10.37,10.37,0,0,1,7.06,2.24,7.93,7.93,0,0,1,2.58,6.34V43.71H239.3l-.51-3.38a7.94,7.94,0,0,1-2.59,2.79A7.72,7.72,0,0,1,231.91,44.22ZM233.13,40a4.48,4.48,0,0,0,3.61-1.52,7.37,7.37,0,0,0,1.63-3.76h-4.61a4.81,4.81,0,0,0-3.08.78,2.41,2.41,0,0,0-.93,1.92,2.21,2.21,0,0,0,.93,1.9A4.09,4.09,0,0,0,233.13,40Z" style="fill:#7983ff"/><path d="M249.07,43.71v-21h4.81l.51,3.93a8.52,8.52,0,0,1,7.74-4.43v5.7h-1.52a8.76,8.76,0,0,0-3.18.55,4.27,4.27,0,0,0-2.17,1.9,7.62,7.62,0,0,0-.78,3.77v9.55Z" style="fill:#7983ff"/><path d="M275.06,44.22a9.82,9.82,0,0,1-5.28-1.44,10.32,10.32,0,0,1-3.68-3.93,11.7,11.7,0,0,1-1.35-5.67,11.59,11.59,0,0,1,1.35-5.64,10.2,10.2,0,0,1,3.68-3.89,10,10,0,0,1,5.28-1.41,9.15,9.15,0,0,1,4.14.88,7.58,7.58,0,0,1,2.88,2.5V13.28h5.41V43.71h-4.82l-.59-3a9.69,9.69,0,0,1-2.69,2.45A8,8,0,0,1,275.06,44.22Zm1.14-4.74a5.65,5.65,0,0,0,4.29-1.75,6.28,6.28,0,0,0,1.67-4.5,6.3,6.3,0,0,0-1.67-4.51,6.13,6.13,0,0,0-8.56,0,6.14,6.14,0,0,0-1.69,4.48,6.29,6.29,0,0,0,1.69,4.53A5.66,5.66,0,0,0,276.2,39.48Z" style="fill:#7983ff"/><path d="M303,44.22a10.78,10.78,0,0,1-5.47-1.4A10.22,10.22,0,0,1,293.72,39a11.31,11.31,0,0,1-1.41-5.72,11.18,11.18,0,0,1,1.43-5.73,10.41,10.41,0,0,1,3.87-3.87,11.4,11.4,0,0,1,10.91,0,10.19,10.19,0,0,1,3.84,3.87,11.28,11.28,0,0,1,1.42,5.73A11.21,11.21,0,0,1,312.36,39a10.13,10.13,0,0,1-3.87,3.87A10.81,10.81,0,0,1,303,44.22Zm0-4.7a5,5,0,0,0,3.68-1.58,6.46,6.46,0,0,0,1.56-4.71,6.47,6.47,0,0,0-1.56-4.72,5,5,0,0,0-7.33,0,6.51,6.51,0,0,0-1.55,4.72,6.5,6.5,0,0,0,1.55,4.71A4.89,4.89,0,0,0,303,39.52Z" style="fill:#7983ff"/><path d="M154.81,79.44a12.21,12.21,0,0,1-4.9-.91A8.47,8.47,0,0,1,146.52,76,7.36,7.36,0,0,1,145,72.3h5.45a3.53,3.53,0,0,0,1.38,2.09,4.56,4.56,0,0,0,2.89.86,3.88,3.88,0,0,0,2.6-.71,2.15,2.15,0,0,0,.83-1.65A1.82,1.82,0,0,0,157,71.05a20.87,20.87,0,0,0-3.29-1c-.9-.2-1.82-.44-2.75-.72a12.54,12.54,0,0,1-2.56-1.08,5.68,5.68,0,0,1-1.88-1.69,4.37,4.37,0,0,1-.72-2.56A5.94,5.94,0,0,1,148,59.36a9.29,9.29,0,0,1,6.24-1.9,9.43,9.43,0,0,1,5.94,1.73A7.07,7.07,0,0,1,162.8,64h-5.12c-.31-1.55-1.48-2.33-3.51-2.33a3.93,3.93,0,0,0-2.34.6,1.75,1.75,0,0,0-.83,1.48q0,.93,1.23,1.47a17.63,17.63,0,0,0,3.26,1c1.46.34,2.81.71,4,1.12a6.71,6.71,0,0,1,2.94,1.82,4.94,4.94,0,0,1,1.1,3.44,5.83,5.83,0,0,1-1,3.51,7,7,0,0,1-3,2.45A11.44,11.44,0,0,1,154.81,79.44Z" style="fill:#7983ff"/><path d="M178.61,79.44a11.24,11.24,0,0,1-5.67-1.4,10.23,10.23,0,0,1-3.87-3.88,12.27,12.27,0,0,1,0-11.42,10.16,10.16,0,0,1,3.87-3.88,11.24,11.24,0,0,1,5.67-1.4,10.87,10.87,0,0,1,6.76,2.09,9.39,9.39,0,0,1,3.51,5.77h-5.71a4.2,4.2,0,0,0-1.67-2.39,5.07,5.07,0,0,0-2.94-.86,5,5,0,0,0-3.8,1.69,6.66,6.66,0,0,0-1.56,4.69,6.64,6.64,0,0,0,1.56,4.69,5,5,0,0,0,3.8,1.69A5.13,5.13,0,0,0,181.5,74a4.12,4.12,0,0,0,1.67-2.41h5.71a9.57,9.57,0,0,1-3.51,5.7A10.61,10.61,0,0,1,178.61,79.44Z" style="fill:#7983ff"/><path d="M193.69,78.93V48.5h5.42V61.18A7.55,7.55,0,0,1,202,58.45a8.4,8.4,0,0,1,4.12-1,7.56,7.56,0,0,1,6,2.45c1.43,1.64,2.14,4,2.14,7.19V78.93h-5.37V67.6a6.81,6.81,0,0,0-1.08-4.14,4,4,0,0,0-3.4-1.43,5,5,0,0,0-3.78,1.6,6.27,6.27,0,0,0-1.5,4.48V78.93Z" style="fill:#7983ff"/><path d="M219.39,78.93V48.5h5.41V78.93Z" style="fill:#7983ff"/><path d="M233.26,54.71a3.37,3.37,0,0,1-2.43-.89,2.91,2.91,0,0,1-1-2.24,2.83,2.83,0,0,1,1-2.21,3.83,3.83,0,0,1,4.86,0,2.85,2.85,0,0,1,.95,2.21,2.93,2.93,0,0,1-.95,2.24A3.41,3.41,0,0,1,233.26,54.71Zm-2.71,24.22V58H236v21Z" style="fill:#7983ff"/><path d="M251.9,79.44a11.27,11.27,0,0,1-5.67-1.4,10.23,10.23,0,0,1-3.87-3.88,12.27,12.27,0,0,1,0-11.42,10.16,10.16,0,0,1,3.87-3.88,11.27,11.27,0,0,1,5.67-1.4,10.87,10.87,0,0,1,6.76,2.09,9.39,9.39,0,0,1,3.51,5.77h-5.71a4.2,4.2,0,0,0-1.67-2.39,5.07,5.07,0,0,0-2.94-.86,5,5,0,0,0-3.8,1.69,6.66,6.66,0,0,0-1.56,4.69,6.64,6.64,0,0,0,1.56,4.69,5,5,0,0,0,3.8,1.69,5.13,5.13,0,0,0,2.94-.84,4.12,4.12,0,0,0,1.67-2.41h5.71a9.57,9.57,0,0,1-3.51,5.7A10.61,10.61,0,0,1,251.9,79.44Z" style="fill:#7983ff"/><path d="M267,78.93V48.5h5.41V61.18a7.55,7.55,0,0,1,2.85-2.73,8.4,8.4,0,0,1,4.12-1,7.56,7.56,0,0,1,6,2.45c1.43,1.64,2.14,4,2.14,7.19V78.93h-5.37V67.6a6.81,6.81,0,0,0-1.08-4.14,4,4,0,0,0-3.4-1.43,5,5,0,0,0-3.78,1.6,6.32,6.32,0,0,0-1.5,4.48V78.93Z" style="fill:#7983ff"/><path d="M302,78.93a8.18,8.18,0,0,1-5.29-1.6c-1.32-1.07-2-3-2-5.71V62.49h-3.6V58h3.6l.63-5.62h4.78V58h5.66v4.52h-5.66v9.17a2.67,2.67,0,0,0,.65,2.09,3.47,3.47,0,0,0,2.26.57h2.62v4.61Z" style="fill:#7983ff"/><path d="M313.4,54.71a3.41,3.41,0,0,1-2.44-.89,2.93,2.93,0,0,1-.95-2.24,2.85,2.85,0,0,1,.95-2.21,3.84,3.84,0,0,1,4.87,0,2.85,2.85,0,0,1,.95,2.21,2.93,2.93,0,0,1-.95,2.24A3.41,3.41,0,0,1,313.4,54.71Zm-2.71,24.22V58h5.41v21Z" style="fill:#7983ff"/><path d="M321.76,78.93V58h4.78l.42,3.55a7.41,7.41,0,0,1,2.81-3,8.33,8.33,0,0,1,4.34-1.1,7.64,7.64,0,0,1,6,2.45c1.44,1.64,2.16,4,2.16,7.19V78.93H336.9V67.6a6.74,6.74,0,0,0-1.1-4.14A4,4,0,0,0,332.37,62a4.83,4.83,0,0,0-3.74,1.6,6.44,6.44,0,0,0-1.45,4.48V78.93Z" style="fill:#7983ff"/><path d="M356.34,72.68a11.49,11.49,0,0,1-2.83-.34l-1.57,1.56a7.28,7.28,0,0,0,1.95.64c.81.17,2.14.33,4,.5q4.18.39,6.09,2a5.49,5.49,0,0,1,1.9,4.44,6.76,6.76,0,0,1-1,3.53,7.3,7.3,0,0,1-3.13,2.7,12.33,12.33,0,0,1-5.41,1,13.82,13.82,0,0,1-7.23-1.67,5.48,5.48,0,0,1-2.75-5,6,6,0,0,1,2.75-4.9,9.38,9.38,0,0,1-1.46-.81,7.49,7.49,0,0,1-1.08-.88v-1l3.68-3.88a7.07,7.07,0,0,1-2.45-5.54,7.28,7.28,0,0,1,4-6.6,9.78,9.78,0,0,1,4.61-1,10.37,10.37,0,0,1,3.3.51h7.94v3.29l-3.59.26a7.54,7.54,0,0,1,.85,3.55,7.4,7.4,0,0,1-1,3.84,7.18,7.18,0,0,1-2.94,2.75A9.54,9.54,0,0,1,356.34,72.68Zm-5.07,8.83a2.52,2.52,0,0,0,1.46,2.35,7.48,7.48,0,0,0,3.57.78,5.92,5.92,0,0,0,3.29-.83,2.51,2.51,0,0,0,1.27-2.21,2.48,2.48,0,0,0-.82-1.91,5.73,5.73,0,0,0-3.28-.93,32.18,32.18,0,0,1-3.21-.38,4.82,4.82,0,0,0-1.75,1.48A2.93,2.93,0,0,0,351.27,81.51Zm5.07-13a4.16,4.16,0,0,0,2.73-.88,3.55,3.55,0,0,0,0-5.08,4.77,4.77,0,0,0-5.52,0,3.57,3.57,0,0,0,0,5.08A4.18,4.18,0,0,0,356.34,68.53Z" style="fill:#7983ff"/></g></g></svg>