<svg xmlns="http://www.w3.org/2000/svg" width="37.148" height="30.292" viewBox="0 0 37.148 30.292">
  <g id="Group_28" data-name="Group 28" transform="translate(-1009.773 -154.447)">
    <g id="Ellipse_1" data-name="Ellipse 1" transform="translate(1012.469 154.669)">
      <path id="Path_30" data-name="Path 30" d="M1018.262,189.676c-.048.179-.089.366-.129.548C1018.17,190.036,1018.217,189.862,1018.262,189.676Z" transform="translate(-1018.133 -178.539)" fill="#7983ff"/>
      <path id="Path_31" data-name="Path 31" d="M1018.851,186.346c-.116.351-.222.706-.319,1.067C1018.625,187.052,1018.732,186.7,1018.851,186.346Z" transform="translate(-1018.403 -176.283)" fill="#7983ff"/>
      <path id="Path_32" data-name="Path 32" d="M1044.179,243.988c-.16-.071-.321-.141-.477-.219a0,0,0,0,0,0,0C1043.861,243.846,1044.019,243.915,1044.179,243.988Z" transform="translate(-1035.458 -215.189)" fill="#7983ff"/>
      <path id="Path_33" data-name="Path 33" d="M1026.057,173.609l-.055.074c.016-.026.036-.052.052-.077A0,0,0,0,0,1026.057,173.609Z" transform="translate(-1023.465 -167.651)" fill="#7983ff"/>
      <path id="Path_34" data-name="Path 34" d="M1029.172,169.652c.042-.042.081-.087.119-.126-.039.042-.08.087-.119.132Z" transform="translate(-1025.613 -164.886)" fill="#7983ff"/>
      <path id="Path_35" data-name="Path 35" d="M1029.658,168.849c.046-.049.1-.093.142-.142-.085.089-.175.173-.258.264C1029.581,168.929,1029.619,168.887,1029.658,168.849Z" transform="translate(-1025.863 -164.331)" fill="#7983ff"/>
      <path id="Path_36" data-name="Path 36" d="M1030.909,166.97c-.2.178-.384.369-.568.56C1030.525,167.338,1030.714,167.151,1030.909,166.97Z" transform="translate(-1026.405 -163.154)" fill="#7983ff"/>
      <path id="Path_37" data-name="Path 37" d="M1032.642,165.486c-.185.153-.361.315-.538.478C1032.28,165.8,1032.461,165.641,1032.642,165.486Z" transform="translate(-1027.599 -162.149)" fill="#7983ff"/>
      <path id="Path_38" data-name="Path 38" d="M1043.043,159.042c.081-.039.161-.081.245-.116-.106.048-.213.1-.316.155C1042.995,159.068,1043.017,159.055,1043.043,159.042Z" transform="translate(-1034.963 -157.704)" fill="#7983ff"/>
      <path id="Path_39" data-name="Path 39" d="M1044.349,158.356c-.134.061-.266.119-.4.184C1044.082,158.471,1044.215,158.416,1044.349,158.356Z" transform="translate(-1035.627 -157.318)" fill="#7983ff"/>
      <path id="Path_40" data-name="Path 40" d="M1050.059,246.255c-.361-.094-.716-.2-1.067-.319C1049.343,246.052,1049.7,246.158,1050.059,246.255Z" transform="translate(-1039.042 -216.66)" fill="#7983ff"/>
      <path id="Path_41" data-name="Path 41" d="M1050.059,155.886c-.361.1-.716.2-1.067.319C1049.343,156.086,1049.7,155.98,1050.059,155.886Z" transform="translate(-1039.042 -155.644)" fill="#7983ff"/>
      <path id="Path_42" data-name="Path 42" d="M1054.411,247.412c-.04,0-.079-.018-.119-.026C1054.333,247.394,1054.375,247.4,1054.411,247.412Z" transform="translate(-1042.633 -217.642)" fill="#7983ff"/>
      <path id="Path_43" data-name="Path 43" d="M1073.471,246.926c-.361.094-.729.174-1.1.242C1072.743,247.1,1073.107,247.016,1073.471,246.926Z" transform="translate(-1054.884 -217.33)" fill="#7983ff"/>
      <path id="Path_44" data-name="Path 44" d="M1073.471,155.378c-.364-.09-.729-.174-1.1-.242C1072.743,155.2,1073.11,155.284,1073.471,155.378Z" transform="translate(-1054.884 -155.136)" fill="#7983ff"/>
      <path id="Path_45" data-name="Path 45" d="M1082.932,242.789a15.941,15.941,0,0,0,1.551-.793A14.929,14.929,0,0,1,1082.932,242.789Z" transform="translate(-1062.039 -213.99)" fill="#7983ff"/>
      <path id="Path_46" data-name="Path 46" d="M1093.946,220.559s0-.006.006-.013a15.17,15.17,0,0,1-6.2,6.916,15.374,15.374,0,0,0,6.194-6.9Z" transform="translate(-1065.305 -199.456)" fill="#7983ff"/>
      <path id="Path_47" data-name="Path 47" d="M1107.1,219.766c-.032.084-.068.164-.106.245C1107.023,219.927,1107.064,219.848,1107.1,219.766Z" transform="translate(-1078.341 -198.927)" fill="#7983ff"/>
      <path id="Path_48" data-name="Path 48" d="M1084.483,159.149a15.951,15.951,0,0,0-1.551-.793A14.938,14.938,0,0,1,1084.483,159.149Z" transform="translate(-1062.039 -157.318)" fill="#7983ff"/>
      <path id="Path_49" data-name="Path 49" d="M1099.942,171.106a.816.816,0,0,1,.071.084C1099.987,171.163,1099.969,171.134,1099.942,171.106Z" transform="translate(-1073.564 -165.957)" fill="#7983ff"/>
      <path id="Path_50" data-name="Path 50" d="M1100.208,171.415a.18.18,0,0,0,.023.029l-.058-.068C1100.185,171.389,1100.195,171.4,1100.208,171.415Z" transform="translate(-1073.72 -166.14)" fill="#7983ff"/>
      <path id="Path_51" data-name="Path 51" d="M1094.754,165.863c-.145-.132-.29-.261-.442-.387C1094.462,165.6,1094.608,165.726,1094.754,165.863Z" transform="translate(-1069.75 -162.142)" fill="#7983ff"/>
      <path id="Path_52" data-name="Path 52" d="M1103.856,176.435a0,0,0,0,0,0,0c-.029-.048-.061-.1-.09-.142A1.3,1.3,0,0,1,1103.856,176.435Z" transform="translate(-1076.153 -169.473)" fill="#7983ff"/>
      <path id="Path_53" data-name="Path 53" d="M1108.9,213.156c-.094.361-.2.716-.319,1.067C1108.7,213.872,1108.8,213.517,1108.9,213.156Z" transform="translate(-1079.419 -194.449)" fill="#7983ff"/>
      <path id="Path_54" data-name="Path 54" d="M1109.3,188.694c-.042-.152-.084-.3-.129-.455l0,0C1109.22,188.388,1109.262,188.539,1109.3,188.694Z" transform="translate(-1079.818 -177.564)" fill="#7983ff"/>
      <path id="Path_55" data-name="Path 55" d="M1110.058,210.806c-.006.039-.018.077-.026.116C1110.041,210.883,1110.047,210.843,1110.058,210.806Z" transform="translate(-1080.401 -192.856)" fill="#7983ff"/>
      <path id="Path_56" data-name="Path 56" d="M1109.64,189.95c.023.09.042.181.061.274-.04-.182-.081-.369-.129-.548C1109.595,189.77,1109.617,189.86,1109.64,189.95Z" transform="translate(-1080.089 -178.539)" fill="#7983ff"/>
    </g>
    <g id="Ellipse_1-2" data-name="Ellipse 1" transform="translate(1012.12 154.447)">
      <path id="Path_57" data-name="Path 57" d="M1018.262,189.676c-.048.179-.089.366-.129.548C1018.17,190.036,1018.217,189.862,1018.262,189.676Z" transform="translate(-1017.785 -178.317)" fill="#7983ff"/>
      <path id="Path_58" data-name="Path 58" d="M1018.851,186.346c-.116.351-.222.706-.319,1.067C1018.625,187.052,1018.732,186.7,1018.851,186.346Z" transform="translate(-1018.055 -176.061)" fill="#7983ff"/>
      <path id="Path_59" data-name="Path 59" d="M1044.179,243.988c-.16-.071-.321-.141-.477-.219a0,0,0,0,0,0,0C1043.861,243.846,1044.019,243.915,1044.179,243.988Z" transform="translate(-1035.109 -214.967)" fill="#7983ff"/>
      <path id="Path_60" data-name="Path 60" d="M1026.057,173.609l-.055.074c.016-.026.036-.052.052-.077A0,0,0,0,0,1026.057,173.609Z" transform="translate(-1023.116 -167.428)" fill="#7983ff"/>
      <path id="Path_61" data-name="Path 61" d="M1029.172,169.652c.042-.042.081-.087.119-.126-.039.042-.08.087-.119.132Z" transform="translate(-1025.264 -164.664)" fill="#7983ff"/>
      <path id="Path_62" data-name="Path 62" d="M1032.642,165.486c-.185.153-.361.315-.538.478C1032.28,165.8,1032.461,165.641,1032.642,165.486Z" transform="translate(-1027.251 -161.927)" fill="#7983ff"/>
      <path id="Path_63" data-name="Path 63" d="M1029.658,168.849c.046-.049.1-.093.142-.142-.085.089-.175.173-.258.264C1029.581,168.929,1029.619,168.887,1029.658,168.849Z" transform="translate(-1025.515 -164.109)" fill="#7983ff"/>
      <path id="Path_64" data-name="Path 64" d="M1030.909,166.97c-.2.178-.384.369-.568.56C1030.525,167.338,1030.714,167.151,1030.909,166.97Z" transform="translate(-1026.056 -162.932)" fill="#7983ff"/>
      <path id="Path_65" data-name="Path 65" d="M1043.043,159.042c.081-.039.161-.081.245-.116-.106.048-.213.1-.316.155C1042.995,159.068,1043.017,159.055,1043.043,159.042Z" transform="translate(-1034.615 -157.482)" fill="#7983ff"/>
      <path id="Path_66" data-name="Path 66" d="M1044.349,158.356c-.134.061-.266.119-.4.184C1044.082,158.471,1044.215,158.416,1044.349,158.356Z" transform="translate(-1035.279 -157.095)" fill="#7983ff"/>
      <path id="Path_67" data-name="Path 67" d="M1050.059,246.255c-.361-.094-.716-.2-1.067-.319C1049.343,246.052,1049.7,246.158,1050.059,246.255Z" transform="translate(-1038.694 -216.437)" fill="#7983ff"/>
      <path id="Path_68" data-name="Path 68" d="M1050.059,155.886c-.361.1-.716.2-1.067.319C1049.343,156.086,1049.7,155.98,1050.059,155.886Z" transform="translate(-1038.694 -155.422)" fill="#7983ff"/>
      <path id="Path_69" data-name="Path 69" d="M1054.411,247.412c-.04,0-.079-.018-.119-.026C1054.333,247.394,1054.375,247.4,1054.411,247.412Z" transform="translate(-1042.285 -217.42)" fill="#7983ff"/>
      <path id="Path_70" data-name="Path 70" d="M1073.471,246.926c-.361.094-.729.174-1.1.242C1072.743,247.1,1073.107,247.016,1073.471,246.926Z" transform="translate(-1054.535 -217.108)" fill="#7983ff"/>
      <path id="Path_71" data-name="Path 71" d="M1073.471,155.378c-.364-.09-.729-.174-1.1-.242C1072.743,155.2,1073.11,155.284,1073.471,155.378Z" transform="translate(-1054.535 -154.914)" fill="#7983ff"/>
      <path id="Path_72" data-name="Path 72" d="M1082.932,242.789a15.941,15.941,0,0,0,1.551-.793A14.929,14.929,0,0,1,1082.932,242.789Z" transform="translate(-1061.691 -213.768)" fill="#7983ff"/>
      <path id="Path_73" data-name="Path 73" d="M1093.946,220.559s0-.006.006-.013a15.17,15.17,0,0,1-6.2,6.916,15.374,15.374,0,0,0,6.194-6.9Z" transform="translate(-1064.956 -199.234)" fill="#7983ff"/>
      <path id="Path_74" data-name="Path 74" d="M1107.1,219.766c-.032.084-.068.164-.106.245C1107.023,219.927,1107.064,219.848,1107.1,219.766Z" transform="translate(-1077.993 -198.705)" fill="#7983ff"/>
      <path id="Path_75" data-name="Path 75" d="M1084.483,159.149a15.951,15.951,0,0,0-1.551-.793A14.938,14.938,0,0,1,1084.483,159.149Z" transform="translate(-1061.691 -157.095)" fill="#7983ff"/>
      <path id="Path_76" data-name="Path 76" d="M1099.942,171.106a.816.816,0,0,1,.071.084C1099.987,171.163,1099.969,171.134,1099.942,171.106Z" transform="translate(-1073.216 -165.735)" fill="#7983ff"/>
      <path id="Path_77" data-name="Path 77" d="M1100.208,171.415a.18.18,0,0,0,.023.029l-.058-.068C1100.185,171.389,1100.195,171.4,1100.208,171.415Z" transform="translate(-1073.372 -165.917)" fill="#7983ff"/>
      <path id="Path_78" data-name="Path 78" d="M1094.754,165.863c-.145-.132-.29-.261-.442-.387C1094.462,165.6,1094.608,165.726,1094.754,165.863Z" transform="translate(-1069.401 -161.92)" fill="#7983ff"/>
      <path id="Path_79" data-name="Path 79" d="M1103.856,176.435a0,0,0,0,0,0,0c-.029-.048-.061-.1-.09-.142A1.3,1.3,0,0,1,1103.856,176.435Z" transform="translate(-1075.804 -169.251)" fill="#7983ff"/>
      <path id="Path_80" data-name="Path 80" d="M1108.9,213.156c-.094.361-.2.716-.319,1.067C1108.7,213.872,1108.8,213.517,1108.9,213.156Z" transform="translate(-1079.07 -194.226)" fill="#7983ff"/>
      <path id="Path_81" data-name="Path 81" d="M1109.3,188.694c-.042-.152-.084-.3-.129-.455l0,0C1109.22,188.388,1109.262,188.539,1109.3,188.694Z" transform="translate(-1079.47 -177.341)" fill="#7983ff"/>
      <path id="Path_82" data-name="Path 82" d="M1110.058,210.806c-.006.039-.018.077-.026.116C1110.041,210.883,1110.047,210.843,1110.058,210.806Z" transform="translate(-1080.053 -192.634)" fill="#7983ff"/>
      <path id="Path_83" data-name="Path 83" d="M1109.64,189.95c.023.09.042.181.061.274-.04-.182-.081-.369-.129-.548C1109.595,189.77,1109.617,189.86,1109.64,189.95Z" transform="translate(-1079.741 -178.317)" fill="#7983ff"/>
      <path id="Path_84" data-name="Path 84" d="M1018.281,168.729c-.006.029-.013.061-.019.09.026-.123.055-.245.087-.364C1018.326,168.548,1018.3,168.638,1018.281,168.729Zm8.535-10.318c-.023.013-.048.023-.071.035.064-.029.129-.061.2-.09C1026.9,158.375,1026.858,158.395,1026.816,158.411Zm-.174.081-.1.048c.064-.032.132-.064.2-.094C1026.71,158.459,1026.677,158.475,1026.642,158.491Zm-.342.164c-.026.013-.048.026-.071.039l.193-.1C1026.381,158.617,1026.339,158.637,1026.3,158.656Zm-4.521,3.427v.006c.019-.026.042-.048.061-.071C1021.822,162.041,1021.8,162.061,1021.78,162.083Zm26.091,13.207c.005,0,0-.016.006-.023A.182.182,0,0,0,1047.871,175.29Zm-.168-6.835c.032.119.061.242.087.364C1047.765,168.7,1047.732,168.579,1047.7,168.454Zm-.874,10.04c.01-.023.019-.048.032-.074-.039.081-.074.161-.113.242C1046.778,178.608,1046.8,178.553,1046.829,178.495Zm-16.853,8.589.022,0c-.006,0-.016,0-.026-.006A0,0,0,0,0,1029.976,187.084Zm-3.16-1.022c.042.016.084.035.126.055-.068-.029-.132-.061-.2-.09C1026.768,186.04,1026.793,186.049,1026.816,186.062Zm-.174-.081c.036.016.068.032.1.045-.068-.029-.135-.061-.2-.093Zm-.177-.084c.026.013.055.026.081.035l-.078-.039A0,0,0,0,1,1026.465,185.9Z" transform="translate(-1017.872 -157.095)" fill="#7983ff"/>
      <path id="Path_85" data-name="Path 85" d="M1065.424,192.489a15.249,15.249,0,0,1-7.513,13.087h0a15.168,15.168,0,0,1-14.2.571,8.933,8.933,0,0,0,1.525-1.087c8.6,3.641,18.772-3.184,18.575-12.572a6.333,6.333,0,0,1,1.006-4.243c.045.152.087.3.129.455A15.249,15.249,0,0,1,1065.424,192.489Z" transform="translate(-1035.116 -177.348)" fill="#7983ff"/>
      <path id="Path_86" data-name="Path 86" d="M1018.664,189.921a13.385,13.385,0,0,0,.068,1.351,6.789,6.789,0,0,0-1.567.49,15.26,15.26,0,0,1,.364-5.63,15.513,15.513,0,0,1,.542-1.677A12.4,12.4,0,0,1,1018.664,189.921Z" transform="translate(-1017.052 -174.78)" fill="#7983ff"/>
      <path id="Path_87" data-name="Path 87" d="M1053.312,161.633a7.1,7.1,0,0,0-1.151,1.212c-4.242-8.264-17.414-9.062-22.609-1.328-.135-.672-.255-1.371-.381-2.076a15.212,15.212,0,0,1,18.885-2.941h0a15.316,15.316,0,0,1,2.944,2.257,12.62,12.62,0,0,1,.986,1.061A15.04,15.04,0,0,1,1053.312,161.633Z" transform="translate(-1025.264 -154.447)" fill="#7983ff"/>
    </g>
    <path id="Path_88" data-name="Path 88" d="M1026.054,173.606c-.016.026-.035.052-.052.077l.055-.074A0,0,0,0,1,1026.054,173.606Z" transform="translate(-10.996 -12.982)" fill="#7983ff"/>
    <path id="Path_89" data-name="Path 89" d="M1026.057,173.609l-.055.074c.016-.026.036-.052.052-.077A0,0,0,0,0,1026.057,173.609Z" transform="translate(-10.996 -12.982)" fill="#7983ff"/>
    <path id="Path_90" data-name="Path 90" d="M1046.894,172.351c-.684.98-.9.1-2.4.177-7.861-.069-2.207,16.3-12.149,8.438,1.78,5.315-4.883,9.141-8.37,4.64a7.475,7.475,0,0,1-4.5,6.839c-7.139,3.531-13.458-5.575-7.052-9.953v0a6.007,6.007,0,0,1,4.414-.4,53.357,53.357,0,0,1-2.882-9.866l0,0,0,0q-.237-1.156-.448-2.421a.7.7,0,0,1,.613-.784c.838-.092.824.908.935,1.477-.016.026-.035.052-.052.077l.055-.074c.8,4.948,2.722,10.832,4.143,13.349.307,1.2,2.249,2.576,1.3,3.573a.705.705,0,0,1-.984-.216c-1.413-2.84-3.163-5.266-6.729-3.292h0v0c-4.005,3.462.283,9.418,5.272,7.567,4.008-1.349,5.648-4.865,3.673-9.931a.7.7,0,0,1,1.322-.474c2.943,9.037,11.19,4.756,6.887-2.576a.706.706,0,0,1,1.158-.79c9.17,9.757,4.949-1.144,9.653-5.175a0,0,0,0,1,0,0C1042.737,170.6,1047.319,170.691,1046.894,172.351Z" transform="translate(0 -9.866)" fill="#7983ff"/>
    <path id="Path_91" data-name="Path 91" d="M1106.948,164.457a.993.993,0,0,1-1.986,0A.993.993,0,0,1,1106.948,164.457Z" transform="translate(-64.497 -6.129)" fill="#7983ff"/>
  </g>
</svg>
