<?xml version="1.0" encoding="utf-8"?>
<!-- Generator: Adobe Illustrator 25.4.1, SVG Export Plug-In . SVG Version: 6.00 Build 0)  -->
<svg version="1.1" id="logo-mobile" xmlns="http://www.w3.org/2000/svg" xmlns:xlink="http://www.w3.org/1999/xlink" x="0px"
	 y="0px" viewBox="0 0 48 42" style="enable-background:new 0 0 48 42;" xml:space="preserve">
<style type="text/css">
	.st0{fill:#48DCFE;}
</style>
<g id="Ellipse_1_00000004523894737746310780000017583307717340731051_" transform="translate(3.033)">
	<path id="Path_57_00000025429316447829402860000012664133692738145701_" class="st0" d="M0.6,16.1c-0.1,0.2-0.1,0.5-0.2,0.7
		C0.5,16.6,0.6,16.3,0.6,16.1z"/>
	<path id="Path_58_00000147909635969329916990000007510263102836533895_" class="st0" d="M1,14.7c-0.2,0.5-0.3,0.9-0.4,1.4
		C0.7,15.6,0.9,15.2,1,14.7z"/>
	<path id="Path_59_00000021084089375114392760000003896616353195990682_" class="st0" d="M11.7,38.9c-0.2-0.1-0.4-0.2-0.6-0.3l0,0
		C11.3,38.7,11.5,38.8,11.7,38.9z"/>
	<path id="Path_60_00000125604069245931667260000007573843426480188044_" class="st0" d="M3.8,9.4L3.7,9.5C3.8,9.5,3.8,9.4,3.8,9.4
		L3.8,9.4z"/>
	<path id="Path_61_00000152955111928434695480000001205340268486697868_" class="st0" d="M5,7.9c0.1-0.1,0.1-0.1,0.2-0.2
		C5.2,7.8,5.1,7.8,5,7.9L5,7.9z"/>
	<path id="Path_62_00000152970009097767687100000007990827635635092609_" class="st0" d="M7,6C6.7,6.2,6.5,6.4,6.3,6.6
		C6.5,6.4,6.7,6.2,7,6z"/>
	<path id="Path_63_00000143607754088947636180000003842910953901764002_" class="st0" d="M5.4,7.5c0.1-0.1,0.1-0.1,0.2-0.2
		C5.4,7.5,5.3,7.6,5.2,7.7C5.3,7.6,5.3,7.6,5.4,7.5z"/>
	<path id="Path_64_00000161593103556189560130000003292985865313415340_" class="st0" d="M6.3,6.6C6,6.9,5.8,7.1,5.5,7.4
		C5.8,7.1,6,6.9,6.3,6.6z"/>
	<path id="Path_65_00000070798748165148619910000003258077624946341277_" class="st0" d="M10.9,3.4c0.1-0.1,0.2-0.1,0.3-0.1
		C11.1,3.3,10.9,3.4,10.9,3.4C10.8,3.5,10.9,3.5,10.9,3.4z"/>
	<path id="Path_66_00000145763640488875493130000000016091630878445215_" class="st0" d="M11.7,3c-0.2,0.1-0.3,0.2-0.5,0.2
		C11.4,3.2,11.5,3.1,11.7,3z"/>
	<path id="Path_67_00000140717919779223242250000002697950232579854985_" class="st0" d="M14.7,39.9c-0.5-0.1-0.9-0.3-1.4-0.4
		C13.8,39.7,14.2,39.8,14.7,39.9z"/>
	<path id="Path_68_00000015335292929258208870000009933295953463553690_" class="st0" d="M14.7,2c-0.5,0.1-0.9,0.3-1.4,0.4
		C13.8,2.3,14.2,2.1,14.7,2z"/>
	<path id="Path_69_00000007400580984277982550000003961212546196433048_" class="st0" d="M15.7,40.2c-0.1,0-0.1,0-0.2,0
		C15.6,40.2,15.6,40.2,15.7,40.2z"/>
	<path id="Path_70_00000031189373244151220890000010127413278359223180_" class="st0" d="M24.5,39.9c-0.5,0.1-0.9,0.2-1.4,0.3
		C23.5,40.2,24,40.1,24.5,39.9z"/>
	<path id="Path_71_00000157288857474097513150000001649486933745324198_" class="st0" d="M24.5,2C24,1.9,23.5,1.8,23,1.7
		C23.5,1.8,24,1.9,24.5,2z"/>
	<path id="Path_72_00000018200811598935247580000012989813404616588221_" class="st0" d="M27.4,38.9c0.7-0.3,1.4-0.6,2-1
		C28.8,38.3,28.1,38.6,27.4,38.9z"/>
	<path id="Path_73_00000023240672261786058180000015733970550478034087_" class="st0" d="M37.5,29C37.5,29,37.5,29,37.5,29
		c-1.7,3.7-4.5,6.9-8,8.9C33,35.8,35.8,32.7,37.5,29L37.5,29z"/>
	<path id="Path_74_00000089548203462548415360000011070706220755026584_" class="st0" d="M37.6,28.6c0,0.1-0.1,0.2-0.1,0.3
		C37.5,28.8,37.6,28.7,37.6,28.6z"/>
	<path id="Path_75_00000163781051213415794300000004017608875293005474_" class="st0" d="M29.5,4.1c-0.6-0.4-1.3-0.7-2-1
		C28.1,3.4,28.8,3.7,29.5,4.1z"/>
	<path id="Path_76_00000036947361487783724560000010287053688322832560_" class="st0" d="M34.5,8.4c0,0,0.1,0.1,0.1,0.1
		C34.6,8.4,34.6,8.4,34.5,8.4z"/>
	<path id="Path_77_00000177466660870979646260000007095500511393883030_" class="st0" d="M34.7,8.5C34.7,8.5,34.7,8.5,34.7,8.5
		L34.7,8.5C34.6,8.5,34.7,8.5,34.7,8.5z"/>
	<path id="Path_78_00000148626885839855480290000001260557893984551614_" class="st0" d="M32.8,6.5c-0.2-0.2-0.4-0.3-0.6-0.5
		C32.4,6.2,32.6,6.3,32.8,6.5z"/>
	<path id="Path_79_00000111875307405670935900000015650044021044239505_" class="st0" d="M36.2,10.7L36.2,10.7
		c0-0.1-0.1-0.1-0.1-0.2C36.2,10.6,36.2,10.6,36.2,10.7z"/>
	<path id="Path_80_00000110473217486280696100000006460744589115536272_" class="st0" d="M38.5,25.9c-0.1,0.5-0.3,0.9-0.4,1.4
		C38.3,26.8,38.4,26.3,38.5,25.9z"/>
	<path id="Path_81_00000159466540467753243100000007247043905862783878_" class="st0" d="M38.5,16.1c-0.1-0.2-0.1-0.4-0.2-0.6l0,0
		C38.4,15.7,38.5,15.9,38.5,16.1z"/>
	<path id="Path_82_00000178166319143785332700000002330118250726143395_" class="st0" d="M38.8,24.9c0,0.1,0,0.1,0,0.1
		C38.7,25,38.8,24.9,38.8,24.9z"/>
	<path id="Path_83_00000034782482442964718250000018381318135891731643_" class="st0" d="M38.6,16.5c0,0.1,0.1,0.2,0.1,0.4
		c-0.1-0.2-0.1-0.5-0.2-0.7C38.6,16.2,38.6,16.3,38.6,16.5z"/>
	<path id="Path_84_00000023983060334531622010000017169629953393782455_" class="st0" d="M0.5,16.5c0,0,0,0.1,0,0.1
		c0-0.2,0.1-0.3,0.1-0.5C0.6,16.2,0.6,16.3,0.5,16.5z M11.6,3.1C11.5,3.1,11.5,3.1,11.6,3.1c0,0,0.1,0,0.2-0.1
		C11.7,3.1,11.6,3.1,11.6,3.1z M11.3,3.2l-0.1,0.1c0.1,0,0.2-0.1,0.3-0.1C11.4,3.2,11.4,3.2,11.3,3.2L11.3,3.2z M10.9,3.4
		C10.9,3.4,10.8,3.5,10.9,3.4L11,3.4C11,3.4,10.9,3.4,10.9,3.4L10.9,3.4z M5,7.9L5,7.9C5.1,7.8,5.1,7.8,5,7.9C5.1,7.8,5.1,7.8,5,7.9
		L5,7.9z M38.8,24.9C38.8,24.9,38.8,24.9,38.8,24.9C38.8,24.9,38.8,24.9,38.8,24.9L38.8,24.9z M38.5,16.1c0,0.2,0.1,0.3,0.1,0.5
		C38.6,16.4,38.6,16.3,38.5,16.1L38.5,16.1z M37.4,29.1c0,0,0-0.1,0-0.1c-0.1,0.1-0.1,0.2-0.1,0.3C37.3,29.2,37.4,29.1,37.4,29.1
		L37.4,29.1z M15.6,40.2C15.6,40.2,15.7,40.2,15.6,40.2C15.7,40.2,15.6,40.2,15.6,40.2L15.6,40.2z M11.6,38.8c0.1,0,0.1,0,0.2,0.1
		C11.6,38.9,11.5,38.8,11.6,38.8C11.5,38.8,11.5,38.8,11.6,38.8L11.6,38.8z M11.3,38.7c0,0,0.1,0,0.1,0.1c-0.1,0-0.2-0.1-0.3-0.1
		L11.3,38.7z M11.1,38.6C11.1,38.7,11.2,38.7,11.1,38.6L11.1,38.6L11.1,38.6z"/>
	<path id="Path_85_00000087386475252456602290000006971460753848157111_" class="st0" d="M39.2,21c0,7-3.7,13.4-9.7,16.9l0,0
		c-5.6,3.3-12.5,3.5-18.3,0.7c0.7-0.4,1.4-0.9,2-1.4c11.1,4.7,24.3-4.1,24-16.2c-0.2-1.9,0.2-3.9,1.3-5.5c0.1,0.2,0.1,0.4,0.2,0.6
		C39,17.7,39.2,19.3,39.2,21z"/>
	<path id="Path_86_00000087373943756013068920000004978675569195297921_" class="st0" d="M2.1,21c0,0.6,0,1.2,0.1,1.7
		c-0.7,0.1-1.4,0.3-2,0.6c-0.3-2.4-0.1-4.9,0.5-7.3c0.2-0.7,0.4-1.5,0.7-2.2C2.1,16.2,2.4,18.6,2.1,21z"/>
	<path id="Path_87_00000000224806341213136430000012046180188122221240_" class="st0" d="M36.2,10.7c-0.6,0.5-1.1,1-1.5,1.6
		C29.3,1.6,12.3,0.6,5.5,10.6C5.4,9.7,5.2,8.8,5,7.9C11.3,1,21.4-0.6,29.4,4.1l0,0c1.4,0.8,2.7,1.8,3.8,2.9c0.5,0.4,0.9,0.9,1.3,1.4
		C35.2,9.1,35.7,9.9,36.2,10.7z"/>
</g>
<path id="Path_90_00000091733157925352388080000004119829186353815225_" class="st0" d="M48,11.8c-0.9,1.3-1.2,0.1-3.1,0.2
	C34.7,11.9,42,33.1,29.2,22.9c2.3,6.9-6.3,11.8-10.8,6c0,3.8-2.3,7.3-5.8,8.8c-9.2,4.6-17.4-7.2-9.1-12.9l0,0
	c1.8-0.9,3.8-1.1,5.7-0.5C7.5,20.3,6.2,16,5.4,11.6l0,0l0,0c-0.2-1-0.4-2-0.6-3.1C4.8,8,5.1,7.6,5.6,7.5c0,0,0,0,0,0
	c1.1-0.1,1.1,1.2,1.2,1.9c0,0,0,0.1-0.1,0.1l0.1-0.1c1,6.4,3.5,14,5.4,17.2c0.4,1.6,2.9,3.3,1.7,4.6c-0.4,0.3-1,0.2-1.3-0.3
	c0,0,0,0,0,0c-1.8-3.7-4.1-6.8-8.7-4.3l0,0l0,0c-5.2,4.5,0.4,12.2,6.8,9.8c5.2-1.7,7.3-6.3,4.7-12.8c-0.1-0.5,0.1-1,0.6-1.1
	c0.4-0.1,0.9,0.1,1.1,0.5c3.8,11.7,14.5,6.1,8.9-3.3c-0.2-0.4-0.1-1,0.4-1.2c0.4-0.2,0.9-0.1,1.1,0.2C39.4,31.3,34,17.3,40,12l0,0
	C42.6,9.5,48.5,9.7,48,11.8z"/>
<path id="Path_91_00000063620154576541258420000005643945591937849989_" class="st0" d="M42.2,6.4c0,0.7-0.6,1.3-1.3,1.2
	c-0.7,0-1.2-0.6-1.2-1.2c0-0.7,0.6-1.3,1.3-1.2C41.7,5.2,42.2,5.8,42.2,6.4z"/>
</svg>
