<svg xmlns="http://www.w3.org/2000/svg" width="12.877" height="12.877"><g data-name="external link"><path data-name="Path 8" d="M9.928 12.877H1.399a1.4 1.4 0 0 1-1.4-1.4V2.948a1.4 1.4 0 0 1 1.4-1.4h3.876a.624.624 0 0 1 .624.624v.775a.624.624 0 0 1-.624.624H2.022v7.282h7.281V8.375a.624.624 0 0 1 .624-.624h.776a.624.624 0 0 1 .624.624v3.1a1.4 1.4 0 0 1-1.399 1.402ZM1.399 2.022a.928.928 0 0 0-.927.927v8.529a.928.928 0 0 0 .927.927h8.529a.928.928 0 0 0 .927-.927v-3.1a.152.152 0 0 0-.151-.152h-.776a.152.152 0 0 0-.152.152v2.95H1.551V3.103h3.725a.152.152 0 0 0 .152-.152v-.775a.152.152 0 0 0-.152-.152Zm3.069 7.755a.812.812 0 0 1-.578-.241l-.552-.551a.818.818 0 0 1 0-1.155l5.738-5.736-.7-.7a.819.819 0 0 1 .579-1.4h3.1a.818.818 0 0 1 .817.817v3.1a.818.818 0 0 1-1.4.579l-.7-.7-5.743 5.745a.811.811 0 0 1-.561.243Zm-.8-1.126.549.548a.344.344 0 0 0 .245.1.343.343 0 0 0 .244-.1l.007-.006 6.064-6.066 1.032 1.031a.347.347 0 0 0 .591-.245v-3.1a.346.346 0 0 0-.345-.346h-3.1a.347.347 0 0 0-.245.591L9.742 2.09 3.669 8.16a.346.346 0 0 0 0 .487Z" fill="#e5e1e6"/></g></svg>