<svg xmlns="http://www.w3.org/2000/svg" width="37.148" height="30.292"><g data-name="Group 28" fill="#7983ff"><g data-name="Ellipse 1"><path data-name="Path 30" d="M2.825 11.359c-.048.179-.089.366-.129.548.037-.188.084-.362.129-.548Z"/><path data-name="Path 31" d="M3.144 10.285Z"/><path data-name="Path 32" d="M11.417 29.021c-.16-.071-.321-.141-.477-.219.159.077.317.146.477.219Z"/><path data-name="Path 33" d="m5.288 6.18-.055.074c.016-.026.036-.052.052-.077l.003.003Z"/><path data-name="Path 34" d="M6.255 4.988c.042-.042.081-.087.119-.126-.039.042-.08.087-.119.132Z"/><path data-name="Path 35" d="M6.491 4.74c.046-.049.1-.093.142-.142-.085.089-.175.173-.258.264.039-.042.077-.084.116-.122Z"/><path data-name="Path 36" d="M7.2 4.038Z"/><path data-name="Path 37" d="M7.739 3.559Z"/><path data-name="Path 38" d="M10.776 1.56c.081-.039.161-.081.245-.116a5.43 5.43 0 0 0-.316.155c.023-.013.045-.026.071-.039Z"/><path data-name="Path 39" d="M11.418 1.26c-.134.061-.266.119-.4.184.133-.069.266-.124.4-.184Z"/><path data-name="Path 40" d="M13.713 29.817Z"/><path data-name="Path 41" d="M13.713.464Z"/><path data-name="Path 42" d="M14.474 29.992c-.04 0-.079-.018-.119-.026.041.008.083.014.119.026Z"/><path data-name="Path 43" d="M21.283 29.818Z"/><path data-name="Path 44" d="M21.283.464c-.364-.09-.729-.174-1.1-.242.372.064.739.148 1.1.242Z"/><path data-name="Path 45" d="M23.589 29.021a15.941 15.941 0 0 0 1.551-.793 14.929 14.929 0 0 1-1.551.793Z"/><path data-name="Path 46" d="M31.337 21.325s0-.006.006-.013a15.17 15.17 0 0 1-6.2 6.916 15.374 15.374 0 0 0 6.194-6.9Z"/><path data-name="Path 47" d="M31.455 21.061a3.548 3.548 0 0 1-.106.245c.029-.084.07-.163.106-.245Z"/><path data-name="Path 48" d="M25.14 2.053a15.951 15.951 0 0 0-1.551-.793 14.938 14.938 0 0 1 1.551.793Z"/><path data-name="Path 49" d="M29.074 5.371a.816.816 0 0 1 .071.084c-.026-.027-.044-.056-.071-.084Z"/><path data-name="Path 50" d="M29.184 5.497a.18.18 0 0 0 .023.029l-.058-.068.035.039Z"/><path data-name="Path 51" d="M27.7 3.943Z"/><path data-name="Path 52" d="M30.399 7.184a2.932 2.932 0 0 0-.09-.142 1.3 1.3 0 0 1 .09.142Z"/><path data-name="Path 53" d="M32.177 18.929Z"/><path data-name="Path 54" d="M32.178 11.352c-.042-.152-.084-.3-.129-.455.049.149.091.3.129.455Z"/><path data-name="Path 55" d="M32.353 18.172c-.006.039-.018.077-.026.116.009-.039.015-.079.026-.116Z"/><path data-name="Path 56" d="M32.247 11.633c.023.09.042.181.061.274-.04-.182-.081-.369-.129-.548l.068.274Z"/></g><g data-name="Ellipse 1"><path data-name="Path 57" d="M2.824 11.359c-.048.179-.089.366-.129.548.037-.188.084-.362.129-.548Z"/><path data-name="Path 58" d="M3.143 10.285Z"/><path data-name="Path 59" d="M11.417 29.021c-.16-.071-.321-.141-.477-.219.159.077.317.146.477.219Z"/><path data-name="Path 60" d="m5.288 6.181-.055.074c.016-.026.036-.052.052-.077l.003.003Z"/><path data-name="Path 61" d="M6.255 4.988c.042-.042.081-.087.119-.126-.039.042-.08.087-.119.132Z"/><path data-name="Path 62" d="M7.738 3.559Z"/><path data-name="Path 63" d="M6.49 4.74c.046-.049.1-.093.142-.142-.085.089-.175.173-.258.264.039-.042.077-.084.116-.122Z"/><path data-name="Path 64" d="M7.2 4.038Z"/><path data-name="Path 65" d="M10.775 1.56c.081-.039.161-.081.245-.116a5.43 5.43 0 0 0-.316.155c.023-.013.045-.026.071-.039Z"/><path data-name="Path 66" d="M11.417 1.261c-.134.061-.266.119-.4.184.133-.069.266-.124.4-.184Z"/><path data-name="Path 67" d="M13.712 29.818Z"/><path data-name="Path 68" d="M13.712.464Z"/><path data-name="Path 69" d="M14.473 29.992c-.04 0-.079-.018-.119-.026.041.008.083.014.119.026Z"/><path data-name="Path 70" d="M21.283 29.818Z"/><path data-name="Path 71" d="M21.283.464c-.364-.09-.729-.174-1.1-.242.372.064.739.148 1.1.242Z"/><path data-name="Path 72" d="M23.588 29.021a15.941 15.941 0 0 0 1.551-.793 14.929 14.929 0 0 1-1.551.793Z"/><path data-name="Path 73" d="M31.337 21.325s0-.006.006-.013a15.17 15.17 0 0 1-6.2 6.916 15.374 15.374 0 0 0 6.194-6.9Z"/><path data-name="Path 74" d="M31.454 21.061a3.548 3.548 0 0 1-.106.245c.029-.084.07-.163.106-.245Z"/><path data-name="Path 75" d="M25.139 2.054a15.951 15.951 0 0 0-1.551-.793 14.938 14.938 0 0 1 1.551.793Z"/><path data-name="Path 76" d="M29.073 5.371a.816.816 0 0 1 .071.084c-.026-.027-.044-.056-.071-.084Z"/><path data-name="Path 77" d="M29.183 5.498a.18.18 0 0 0 .023.029l-.058-.068.035.039Z"/><path data-name="Path 78" d="M27.7 3.943Z"/><path data-name="Path 79" d="M30.399 7.184a2.932 2.932 0 0 0-.09-.142 1.3 1.3 0 0 1 .09.142Z"/><path data-name="Path 80" d="M32.177 18.93Z"/><path data-name="Path 81" d="M32.177 11.353c-.042-.152-.084-.3-.129-.455.049.149.091.3.129.455Z"/><path data-name="Path 82" d="M32.352 18.172c-.006.039-.018.077-.026.116.009-.039.015-.079.026-.116Z"/><path data-name="Path 83" d="M32.246 11.633c.023.09.042.181.061.274-.04-.182-.081-.369-.129-.548l.068.274Z"/><path data-name="Path 84" d="m2.756 11.634-.019.09c.026-.123.055-.245.087-.364-.023.093-.049.183-.068.274Zm8.535-10.318c-.023.013-.048.023-.071.035.064-.029.129-.061.2-.09-.045.019-.087.039-.129.055Zm-.174.081-.1.048c.064-.032.132-.064.2-.094-.032.013-.065.029-.1.045Zm-.342.164c-.026.013-.048.026-.071.039l.193-.1c-.041.022-.083.042-.122.061ZM6.254 4.988v.006c.019-.026.042-.048.061-.071-.018.023-.04.043-.06.065Zm26.091 13.207c.005 0 0-.016.006-.023a.182.182 0 0 0-.005.023Zm-.168-6.835c.032.119.061.242.087.364-.024-.119-.057-.24-.089-.365Zm-.874 10.04c.01-.023.019-.048.032-.074-.039.081-.074.161-.113.242.031-.055.053-.11.082-.168ZM14.45 29.989h.022c-.006 0-.016 0-.026-.006l.005.006Zm-3.16-1.022c.042.016.084.035.126.055-.068-.029-.132-.061-.2-.09.027.013.052.022.075.035Zm-.174-.081c.036.016.068.032.1.045a4.07 4.07 0 0 1-.2-.093Zm-.177-.084a.707.707 0 0 0 .081.035l-.078-.039-.002.007Z"/><path data-name="Path 85" d="M32.655 15.141a15.249 15.249 0 0 1-7.513 13.087 15.168 15.168 0 0 1-14.2.571 8.933 8.933 0 0 0 1.525-1.087c8.6 3.641 18.772-3.184 18.575-12.572a6.333 6.333 0 0 1 1.006-4.243c.045.152.087.3.129.455a15.249 15.249 0 0 1 .478 3.789Z"/><path data-name="Path 86" d="M3.959 15.141a13.385 13.385 0 0 0 .068 1.351 6.789 6.789 0 0 0-1.567.49 15.26 15.26 0 0 1 .364-5.63 15.513 15.513 0 0 1 .542-1.677 12.4 12.4 0 0 1 .593 5.466Z"/><path data-name="Path 87" d="M30.395 7.186a7.1 7.1 0 0 0-1.151 1.212C25.002.134 11.83-.664 6.635 7.07c-.135-.672-.255-1.371-.381-2.076a15.212 15.212 0 0 1 18.885-2.941 15.316 15.316 0 0 1 2.944 2.257 12.62 12.62 0 0 1 .986 1.061 15.04 15.04 0 0 1 1.326 1.815Z"/></g><path data-name="Path 88" d="M5.285 6.177c-.016.026-.035.052-.052.077l.055-.074-.003-.003Z"/><path data-name="Path 89" d="m5.288 6.18-.055.074c.016-.026.036-.052.052-.077l.003.003Z"/><path data-name="Path 90" d="M37.121 8.038c-.684.98-.9.1-2.4.177-7.861-.069-2.207 16.3-12.149 8.438 1.78 5.315-4.883 9.141-8.37 4.64a7.475 7.475 0 0 1-4.5 6.839c-7.139 3.531-13.458-5.575-7.052-9.953a6.007 6.007 0 0 1 4.414-.4 53.357 53.357 0 0 1-2.882-9.866q-.237-1.156-.448-2.421a.7.7 0 0 1 .613-.784c.838-.092.824.908.935 1.477-.016.026-.035.052-.052.077l.055-.074c.8 4.948 2.722 10.832 4.143 13.349.307 1.2 2.249 2.576 1.3 3.573a.705.705 0 0 1-.984-.216c-1.413-2.84-3.163-5.266-6.729-3.292-4.005 3.462.283 9.418 5.272 7.567 4.008-1.349 5.648-4.865 3.673-9.931a.702.702 0 0 1 1.322-.474c2.943 9.037 11.19 4.756 6.887-2.576a.706.706 0 0 1 1.158-.79c9.17 9.757 4.949-1.144 9.653-5.175 1.984-1.936 6.566-1.845 6.141-.185Z"/><path data-name="Path 91" d="M32.678 3.881a.993.993 0 0 1-1.986 0 .993.993 0 0 1 1.986 0Z"/></g></svg>